<svg width="1521" height="353" viewBox="0 0 1521 353" fill="none" xmlns="http://www.w3.org/2000/svg">
<path d="M48.1 57.1C54.5133 57.1 60.32 58.5733 65.52 61.52C70.72 64.38 74.7933 68.4533 77.74 73.74C80.6867 79.0267 82.16 85.05 82.16 91.81C82.16 98.57 80.6867 104.593 77.74 109.88C74.7933 115.167 70.72 119.283 65.52 122.23C60.32 125.177 54.5133 126.65 48.1 126.65C42.38 126.65 37.2233 125.437 32.63 123.01C28.1233 120.583 24.4833 117.073 21.71 112.48V126H12.87V29.54H22.1V70.62C24.96 66.2 28.6 62.8633 33.02 60.61C37.5267 58.27 42.5533 57.1 48.1 57.1ZM47.45 118.46C52.2167 118.46 56.55 117.377 60.45 115.21C64.35 112.957 67.3833 109.793 69.55 105.72C71.8033 101.647 72.93 97.01 72.93 91.81C72.93 86.61 71.8033 81.9733 69.55 77.9C67.3833 73.8267 64.35 70.7067 60.45 68.54C56.55 66.2867 52.2167 65.16 47.45 65.16C42.5967 65.16 38.22 66.2867 34.32 68.54C30.5067 70.7067 27.4733 73.8267 25.22 77.9C23.0533 81.9733 21.97 86.61 21.97 91.81C21.97 97.01 23.0533 101.647 25.22 105.72C27.4733 109.793 30.5067 112.957 34.32 115.21C38.22 117.377 42.5967 118.46 47.45 118.46ZM95.7755 29.54H105.005V126H95.7755V29.54ZM187.108 57.62V126H178.268V113.52C175.841 117.68 172.504 120.93 168.258 123.27C164.011 125.523 159.158 126.65 153.698 126.65C144.771 126.65 137.708 124.18 132.508 119.24C127.394 114.213 124.838 106.89 124.838 97.27V57.62H134.068V96.36C134.068 103.553 135.844 109.013 139.398 112.74C142.951 116.467 148.021 118.33 154.608 118.33C161.801 118.33 167.478 116.163 171.638 111.83C175.798 107.41 177.878 101.3 177.878 93.5V57.62H187.108ZM267.298 94.67H210.098C210.618 101.777 213.348 107.54 218.288 111.96C223.228 116.293 229.468 118.46 237.008 118.46C241.255 118.46 245.155 117.723 248.708 116.25C252.262 114.69 255.338 112.437 257.938 109.49L263.138 115.47C260.105 119.11 256.292 121.883 251.698 123.79C247.192 125.697 242.208 126.65 236.748 126.65C229.728 126.65 223.488 125.177 218.028 122.23C212.655 119.197 208.452 115.037 205.418 109.75C202.385 104.463 200.868 98.4833 200.868 91.81C200.868 85.1367 202.298 79.1567 205.158 73.87C208.105 68.5833 212.092 64.4667 217.118 61.52C222.232 58.5733 227.952 57.1 234.278 57.1C240.605 57.1 246.282 58.5733 251.308 61.52C256.335 64.4667 260.278 68.5833 263.138 73.87C265.998 79.07 267.428 85.05 267.428 91.81L267.298 94.67ZM234.278 65.03C227.692 65.03 222.145 67.1533 217.638 71.4C213.218 75.56 210.705 81.02 210.098 87.78H258.588C257.982 81.02 255.425 75.56 250.918 71.4C246.498 67.1533 240.952 65.03 234.278 65.03Z" fill="#3D5AFE"/>
<path d="M275.87 29.54H285.1V126H275.87V29.54ZM365.122 94.67H307.922C308.442 101.777 311.172 107.54 316.112 111.96C321.052 116.293 327.292 118.46 334.832 118.46C339.079 118.46 342.979 117.723 346.532 116.25C350.085 114.69 353.162 112.437 355.762 109.49L360.962 115.47C357.929 119.11 354.115 121.883 349.522 123.79C345.015 125.697 340.032 126.65 334.572 126.65C327.552 126.65 321.312 125.177 315.852 122.23C310.479 119.197 306.275 115.037 303.242 109.75C300.209 104.463 298.692 98.4833 298.692 91.81C298.692 85.1367 300.122 79.1567 302.982 73.87C305.929 68.5833 309.915 64.4667 314.942 61.52C320.055 58.5733 325.775 57.1 332.102 57.1C338.429 57.1 344.105 58.5733 349.132 61.52C354.159 64.4667 358.102 68.5833 360.962 73.87C363.822 79.07 365.252 85.05 365.252 91.81L365.122 94.67ZM332.102 65.03C325.515 65.03 319.969 67.1533 315.462 71.4C311.042 75.56 308.529 81.02 307.922 87.78H356.412C355.805 81.02 353.249 75.56 348.742 71.4C344.322 67.1533 338.775 65.03 332.102 65.03ZM400.855 57.1C409.782 57.1 416.628 59.3533 421.395 63.86C426.162 68.28 428.545 74.8667 428.545 83.62V126H419.705V115.34C417.625 118.893 414.548 121.667 410.475 123.66C406.488 125.653 401.722 126.65 396.175 126.65C388.548 126.65 382.482 124.83 377.975 121.19C373.468 117.55 371.215 112.74 371.215 106.76C371.215 100.953 373.295 96.2733 377.455 92.72C381.702 89.1667 388.418 87.39 397.605 87.39H419.315V83.23C419.315 77.3367 417.668 72.8733 414.375 69.84C411.082 66.72 406.272 65.16 399.945 65.16C395.612 65.16 391.452 65.8967 387.465 67.37C383.478 68.7567 380.055 70.7067 377.195 73.22L373.035 66.33C376.502 63.3833 380.662 61.13 385.515 59.57C390.368 57.9233 395.482 57.1 400.855 57.1ZM397.605 119.37C402.805 119.37 407.268 118.2 410.995 115.86C414.722 113.433 417.495 109.967 419.315 105.46V94.28H397.865C386.165 94.28 380.315 98.3533 380.315 106.5C380.315 110.487 381.832 113.65 384.865 115.99C387.898 118.243 392.145 119.37 397.605 119.37ZM457.255 71.01C459.421 66.4167 462.628 62.95 466.875 60.61C471.208 58.27 476.538 57.1 482.865 57.1V66.07L480.655 65.94C473.461 65.94 467.828 68.15 463.755 72.57C459.681 76.99 457.645 83.1867 457.645 91.16V126H448.415V57.62H457.255V71.01ZM529.217 57.1C537.797 57.1 544.6 59.6133 549.627 64.64C554.74 69.58 557.297 76.8167 557.297 86.35V126H548.067V87.26C548.067 80.1533 546.29 74.7367 542.737 71.01C539.183 67.2833 534.113 65.42 527.527 65.42C520.16 65.42 514.31 67.63 509.977 72.05C505.73 76.3833 503.607 82.4067 503.607 90.12V126H494.377V57.62H503.217V70.23C505.73 66.07 509.197 62.8633 513.617 60.61C518.123 58.27 523.323 57.1 529.217 57.1Z" fill="white"/>
<path d="M858.6 126.78C849.587 126.78 841.397 124.787 834.03 120.8C826.75 116.727 821.03 111.18 816.87 104.16C812.797 97.14 810.76 89.2533 810.76 80.5C810.76 71.7467 812.797 63.86 816.87 56.84C821.03 49.82 826.75 44.3167 834.03 40.33C841.397 36.2567 849.587 34.22 858.6 34.22C867.613 34.22 875.717 36.2133 882.91 40.2C890.19 44.1867 895.91 49.7333 900.07 56.84C904.23 63.86 906.31 71.7467 906.31 80.5C906.31 89.2533 904.23 97.1833 900.07 104.29C895.91 111.31 890.19 116.813 882.91 120.8C875.717 124.787 867.613 126.78 858.6 126.78ZM858.6 118.2C865.793 118.2 872.293 116.597 878.1 113.39C883.907 110.097 888.457 105.59 891.75 99.87C895.043 94.0633 896.69 87.6067 896.69 80.5C896.69 73.3933 895.043 66.98 891.75 61.26C888.457 55.4533 883.907 50.9467 878.1 47.74C872.293 44.4467 865.793 42.8 858.6 42.8C851.407 42.8 844.863 44.4467 838.97 47.74C833.163 50.9467 828.57 55.4533 825.19 61.26C821.897 66.98 820.25 73.3933 820.25 80.5C820.25 87.6067 821.897 94.0633 825.19 99.87C828.57 105.59 833.163 110.097 838.97 113.39C844.863 116.597 851.407 118.2 858.6 118.2ZM955.953 57.1C962.366 57.1 968.173 58.5733 973.373 61.52C978.573 64.38 982.646 68.4533 985.593 73.74C988.539 79.0267 990.013 85.05 990.013 91.81C990.013 98.6567 988.539 104.723 985.593 110.01C982.646 115.297 978.573 119.413 973.373 122.36C968.259 125.22 962.453 126.65 955.953 126.65C950.406 126.65 945.379 125.523 940.873 123.27C936.453 120.93 932.813 117.55 929.953 113.13V151.22H920.723V57.62H929.563V71.14C932.336 66.6333 935.976 63.1667 940.483 60.74C945.076 58.3133 950.233 57.1 955.953 57.1ZM955.303 118.46C960.069 118.46 964.403 117.377 968.303 115.21C972.203 112.957 975.236 109.793 977.403 105.72C979.656 101.647 980.783 97.01 980.783 91.81C980.783 86.61 979.656 82.0167 977.403 78.03C975.236 73.9567 972.203 70.7933 968.303 68.54C964.403 66.2867 960.069 65.16 955.303 65.16C950.449 65.16 946.073 66.2867 942.173 68.54C938.359 70.7933 935.326 73.9567 933.073 78.03C930.906 82.0167 929.823 86.61 929.823 91.81C929.823 97.01 930.906 101.647 933.073 105.72C935.326 109.793 938.359 112.957 942.173 115.21C946.073 117.377 950.449 118.46 955.303 118.46ZM1063.17 94.67H1005.97C1006.49 101.777 1009.22 107.54 1014.16 111.96C1019.1 116.293 1025.34 118.46 1032.88 118.46C1037.12 118.46 1041.02 117.723 1044.58 116.25C1048.13 114.69 1051.21 112.437 1053.81 109.49L1059.01 115.47C1055.97 119.11 1052.16 121.883 1047.57 123.79C1043.06 125.697 1038.08 126.65 1032.62 126.65C1025.6 126.65 1019.36 125.177 1013.9 122.23C1008.52 119.197 1004.32 115.037 1001.29 109.75C998.255 104.463 996.738 98.4833 996.738 91.81C996.738 85.1367 998.168 79.1567 1001.03 73.87C1003.97 68.5833 1007.96 64.4667 1012.99 61.52C1018.1 58.5733 1023.82 57.1 1030.15 57.1C1036.47 57.1 1042.15 58.5733 1047.18 61.52C1052.2 64.4667 1056.15 68.5833 1059.01 73.87C1061.87 79.07 1063.3 85.05 1063.3 91.81L1063.17 94.67ZM1030.15 65.03C1023.56 65.03 1018.01 67.1533 1013.51 71.4C1009.09 75.56 1006.57 81.02 1005.97 87.78H1054.46C1053.85 81.02 1051.29 75.56 1046.79 71.4C1042.37 67.1533 1036.82 65.03 1030.15 65.03ZM1111.73 57.1C1120.31 57.1 1127.11 59.6133 1132.14 64.64C1137.25 69.58 1139.81 76.8167 1139.81 86.35V126H1130.58V87.26C1130.58 80.1533 1128.8 74.7367 1125.25 71.01C1121.69 67.2833 1116.62 65.42 1110.04 65.42C1102.67 65.42 1096.82 67.63 1092.49 72.05C1088.24 76.3833 1086.12 82.4067 1086.12 90.12V126H1076.89V57.62H1085.73V70.23C1088.24 66.07 1091.71 62.8633 1096.13 60.61C1100.63 58.27 1105.83 57.1 1111.73 57.1ZM1186.7 126.78C1179.94 126.78 1173.44 125.697 1167.2 123.53C1161.05 121.363 1156.28 118.503 1152.9 114.95L1156.67 107.54C1159.97 110.833 1164.34 113.52 1169.8 115.6C1175.26 117.593 1180.9 118.59 1186.7 118.59C1194.85 118.59 1200.96 117.117 1205.03 114.17C1209.11 111.137 1211.14 107.237 1211.14 102.47C1211.14 98.83 1210.02 95.9267 1207.76 93.76C1205.6 91.5933 1202.91 89.9467 1199.7 88.82C1196.5 87.6067 1192.03 86.3067 1186.31 84.92C1179.47 83.1867 1174.01 81.54 1169.93 79.98C1165.86 78.3333 1162.35 75.8633 1159.4 72.57C1156.54 69.2767 1155.11 64.8133 1155.11 59.18C1155.11 54.5867 1156.33 50.4267 1158.75 46.7C1161.18 42.8867 1164.91 39.8533 1169.93 37.6C1174.96 35.3467 1181.2 34.22 1188.65 34.22C1193.85 34.22 1198.92 34.9567 1203.86 36.43C1208.89 37.8167 1213.22 39.7667 1216.86 42.28L1213.61 49.95C1209.8 47.4367 1205.73 45.5733 1201.39 44.36C1197.06 43.06 1192.81 42.41 1188.65 42.41C1180.68 42.41 1174.66 43.97 1170.58 47.09C1166.6 50.1233 1164.6 54.0667 1164.6 58.92C1164.6 62.56 1165.69 65.5067 1167.85 67.76C1170.11 69.9267 1172.88 71.6167 1176.17 72.83C1179.55 73.9567 1184.06 75.2133 1189.69 76.6C1196.37 78.2467 1201.74 79.8933 1205.81 81.54C1209.97 83.1 1213.48 85.5267 1216.34 88.82C1219.2 92.0267 1220.63 96.4033 1220.63 101.95C1220.63 106.543 1219.38 110.747 1216.86 114.56C1214.44 118.287 1210.67 121.277 1205.55 123.53C1200.44 125.697 1194.16 126.78 1186.7 126.78ZM1258.36 57.1C1267.29 57.1 1274.14 59.3533 1278.9 63.86C1283.67 68.28 1286.05 74.8667 1286.05 83.62V126H1277.21V115.34C1275.13 118.893 1272.06 121.667 1267.98 123.66C1264 125.653 1259.23 126.65 1253.68 126.65C1246.06 126.65 1239.99 124.83 1235.48 121.19C1230.98 117.55 1228.72 112.74 1228.72 106.76C1228.72 100.953 1230.8 96.2733 1234.96 92.72C1239.21 89.1667 1245.93 87.39 1255.11 87.39H1276.82V83.23C1276.82 77.3367 1275.18 72.8733 1271.88 69.84C1268.59 66.72 1263.78 65.16 1257.45 65.16C1253.12 65.16 1248.96 65.8967 1244.97 67.37C1240.99 68.7567 1237.56 70.7067 1234.7 73.22L1230.54 66.33C1234.01 63.3833 1238.17 61.13 1243.02 59.57C1247.88 57.9233 1252.99 57.1 1258.36 57.1ZM1255.11 119.37C1260.31 119.37 1264.78 118.2 1268.5 115.86C1272.23 113.433 1275 109.967 1276.82 105.46V94.28H1255.37C1243.67 94.28 1237.82 98.3533 1237.82 106.5C1237.82 110.487 1239.34 113.65 1242.37 115.99C1245.41 118.243 1249.65 119.37 1255.11 119.37ZM1367.54 57.62V126H1358.7V113.52C1356.28 117.68 1352.94 120.93 1348.69 123.27C1344.45 125.523 1339.59 126.65 1334.13 126.65C1325.21 126.65 1318.14 124.18 1312.94 119.24C1307.83 114.213 1305.27 106.89 1305.27 97.27V57.62H1314.5V96.36C1314.5 103.553 1316.28 109.013 1319.83 112.74C1323.39 116.467 1328.46 118.33 1335.04 118.33C1342.24 118.33 1347.91 116.163 1352.07 111.83C1356.23 107.41 1358.31 101.3 1358.31 93.5V57.62H1367.54ZM1416.53 126.65C1409.77 126.65 1403.71 125.177 1398.33 122.23C1393.05 119.283 1388.89 115.167 1385.85 109.88C1382.82 104.507 1381.3 98.4833 1381.3 91.81C1381.3 85.1367 1382.82 79.1567 1385.85 73.87C1388.89 68.5833 1393.05 64.4667 1398.33 61.52C1403.71 58.5733 1409.77 57.1 1416.53 57.1C1422.43 57.1 1427.67 58.27 1432.26 60.61C1436.94 62.8633 1440.63 66.2 1443.31 70.62L1436.42 75.3C1434.17 71.92 1431.31 69.4067 1427.84 67.76C1424.38 66.0267 1420.61 65.16 1416.53 65.16C1411.59 65.16 1407.13 66.2867 1403.14 68.54C1399.24 70.7067 1396.17 73.8267 1393.91 77.9C1391.75 81.9733 1390.66 86.61 1390.66 91.81C1390.66 97.0967 1391.75 101.777 1393.91 105.85C1396.17 109.837 1399.24 112.957 1403.14 115.21C1407.13 117.377 1411.59 118.46 1416.53 118.46C1420.61 118.46 1424.38 117.637 1427.84 115.99C1431.31 114.343 1434.17 111.83 1436.42 108.45L1443.31 113.13C1440.63 117.55 1436.94 120.93 1432.26 123.27C1427.58 125.523 1422.34 126.65 1416.53 126.65ZM1514.64 94.67H1457.44C1457.96 101.777 1460.69 107.54 1465.63 111.96C1470.57 116.293 1476.81 118.46 1484.35 118.46C1488.6 118.46 1492.5 117.723 1496.05 116.25C1499.61 114.69 1502.68 112.437 1505.28 109.49L1510.48 115.47C1507.45 119.11 1503.64 121.883 1499.04 123.79C1494.54 125.697 1489.55 126.65 1484.09 126.65C1477.07 126.65 1470.83 125.177 1465.37 122.23C1460 119.197 1455.8 115.037 1452.76 109.75C1449.73 104.463 1448.21 98.4833 1448.21 91.81C1448.21 85.1367 1449.64 79.1567 1452.5 73.87C1455.45 68.5833 1459.44 64.4667 1464.46 61.52C1469.58 58.5733 1475.3 57.1 1481.62 57.1C1487.95 57.1 1493.63 58.5733 1498.65 61.52C1503.68 64.4667 1507.62 68.5833 1510.48 73.87C1513.34 79.07 1514.77 85.05 1514.77 91.81L1514.64 94.67ZM1481.62 65.03C1475.04 65.03 1469.49 67.1533 1464.98 71.4C1460.56 75.56 1458.05 81.02 1457.44 87.78H1505.93C1505.33 81.02 1502.77 75.56 1498.26 71.4C1493.84 67.1533 1488.3 65.03 1481.62 65.03Z" fill="#FE6C3E"/>
<path d="M703.4 115L686.7 93L669.9 115H661.9L682.7 88L662.9 62.4H670.9L686.7 83L702.5 62.4H710.3L690.5 88L711.5 115H703.4Z" fill="white"/>
<path d="M449.32 315.24C440.04 315.24 431.24 314.12 422.92 311.88C414.6 309.64 407.827 306.76 402.6 303.24L415.08 279.56C420.733 283.187 426.76 285.96 433.16 287.88C439.56 289.693 445.96 290.6 452.36 290.6C458.44 290.6 463.133 289.747 466.44 288.04C469.853 286.227 471.56 283.773 471.56 280.68C471.56 278.013 470.013 275.933 466.92 274.44C463.933 272.947 459.24 271.347 452.84 269.64C445.587 267.72 439.56 265.8 434.76 263.88C429.96 261.853 425.8 258.813 422.28 254.76C418.867 250.707 417.16 245.373 417.16 238.76C417.16 230.76 419.347 223.773 423.72 217.8C428.093 211.72 434.333 207.027 442.44 203.72C450.547 200.413 460.04 198.76 470.92 198.76C478.92 198.76 486.387 199.613 493.32 201.32C500.253 202.92 506.227 205.267 511.24 208.36L499.72 231.88C495.347 229.107 490.493 227.027 485.16 225.64C479.933 224.147 474.547 223.4 469 223.4C462.707 223.4 457.747 224.413 454.12 226.44C450.6 228.467 448.84 231.08 448.84 234.28C448.84 237.053 450.387 239.187 453.48 240.68C456.573 242.173 461.373 243.773 467.88 245.48C475.133 247.293 481.107 249.16 485.8 251.08C490.6 253 494.707 255.933 498.12 259.88C501.533 263.827 503.24 269 503.24 275.4C503.24 283.293 501 290.28 496.52 296.36C492.147 302.333 485.853 306.973 477.64 310.28C469.533 313.587 460.093 315.24 449.32 315.24ZM574.514 201C589.02 201 600.22 204.147 608.114 210.44C616.007 216.733 619.954 225.587 619.954 237C619.954 246.387 617.66 254.6 613.074 261.64C608.594 268.68 602.14 274.12 593.714 277.96C585.394 281.8 575.687 283.72 564.594 283.72H542.194L536.434 313H504.754L527.154 201H574.514ZM566.034 258.76C573.074 258.76 578.46 257.107 582.194 253.8C586.034 250.493 587.954 245.8 587.954 239.72C587.954 235.133 586.407 231.72 583.314 229.48C580.327 227.133 576.007 225.96 570.354 225.96H553.714L547.154 258.76H566.034ZM730.12 236.68C730.12 246.92 727.4 255.773 721.96 263.24C716.52 270.6 708.893 275.987 699.08 279.4L718.12 313H685L668.36 283.24H652.36L646.44 313H614.76L637.16 201H685C699.293 201 710.387 204.147 718.28 210.44C726.173 216.733 730.12 225.48 730.12 236.68ZM698.12 239.72C698.12 235.133 696.573 231.72 693.48 229.48C690.387 227.133 686.067 225.96 680.52 225.96H663.88L657.16 258.76H676.04C683.08 258.76 688.52 257.107 692.36 253.8C696.2 250.493 698.12 245.8 698.12 239.72ZM749.197 201H780.877L758.477 313H726.797L749.197 201ZM903.416 201L881.016 313H854.936L817.976 251.56L805.656 313H774.616L797.016 201H823.096L860.216 262.28L872.376 201H903.416ZM938.243 226.12H903.843L908.963 201H1009.28L1004.16 226.12H969.923L952.483 313H920.803L938.243 226.12Z" fill="white"/>
</svg>
