<svg width="2150" height="122" viewBox="0 0 2150 122" fill="none" xmlns="http://www.w3.org/2000/svg">
<path d="M37 44C41.9333 44 46.4 45.1333 50.4 47.4C54.4 49.6 57.5333 52.7333 59.8 56.8C62.0667 60.8667 63.2 65.5 63.2 70.7C63.2 75.9 62.0667 80.5333 59.8 84.6C57.5333 88.6667 54.4 91.8333 50.4 94.1C46.4 96.3667 41.9333 97.5 37 97.5C32.6 97.5 28.6333 96.5667 25.1 94.7C21.6333 92.8333 18.8333 90.1333 16.7 86.6V97H9.9V22.8H17V54.4C19.2 51 22 48.4333 25.4 46.7C28.8667 44.9 32.7333 44 37 44ZM36.5 91.2C40.1667 91.2 43.5 90.3667 46.5 88.7C49.5 86.9667 51.8333 84.5333 53.5 81.4C55.2333 78.2667 56.1 74.7 56.1 70.7C56.1 66.7 55.2333 63.1333 53.5 60C51.8333 56.8667 49.5 54.4667 46.5 52.8C43.5 51.0667 40.1667 50.2 36.5 50.2C32.7667 50.2 29.4 51.0667 26.4 52.8C23.4667 54.4667 21.1333 56.8667 19.4 60C17.7333 63.1333 16.9 66.7 16.9 70.7C16.9 74.7 17.7333 78.2667 19.4 81.4C21.1333 84.5333 23.4667 86.9667 26.4 88.7C29.4 90.3667 32.7667 91.2 36.5 91.2ZM73.6734 22.8H80.7734V97H73.6734V22.8ZM143.929 44.4V97H137.129V87.4C135.262 90.6 132.696 93.1 129.429 94.9C126.162 96.6333 122.429 97.5 118.229 97.5C111.362 97.5 105.929 95.6 101.929 91.8C97.9956 87.9333 96.0289 82.3 96.0289 74.9V44.4H103.129V74.2C103.129 79.7333 104.496 83.9333 107.229 86.8C109.962 89.6667 113.862 91.1 118.929 91.1C124.462 91.1 128.829 89.4333 132.029 86.1C135.229 82.7 136.829 78 136.829 72V44.4H143.929ZM205.614 72.9H161.614C162.014 78.3667 164.114 82.8 167.914 86.2C171.714 89.5333 176.514 91.2 182.314 91.2C185.581 91.2 188.581 90.6333 191.314 89.5C194.047 88.3 196.414 86.5667 198.414 84.3L202.414 88.9C200.081 91.7 197.147 93.8333 193.614 95.3C190.147 96.7667 186.314 97.5 182.114 97.5C176.714 97.5 171.914 96.3667 167.714 94.1C163.581 91.7667 160.347 88.5667 158.014 84.5C155.681 80.4333 154.514 75.8333 154.514 70.7C154.514 65.5667 155.614 60.9667 157.814 56.9C160.081 52.8333 163.147 49.6667 167.014 47.4C170.947 45.1333 175.347 44 180.214 44C185.081 44 189.447 45.1333 193.314 47.4C197.181 49.6667 200.214 52.8333 202.414 56.9C204.614 60.9 205.714 65.5 205.714 70.7L205.614 72.9ZM180.214 50.1C175.147 50.1 170.881 51.7333 167.414 55C164.014 58.2 162.081 62.4 161.614 67.6H198.914C198.447 62.4 196.481 58.2 193.014 55C189.614 51.7333 185.347 50.1 180.214 50.1Z" fill="#3D5AFE"/>
<path d="M639 44C643.933 44 648.4 45.1333 652.4 47.4C656.4 49.6 659.533 52.7333 661.8 56.8C664.067 60.8667 665.2 65.5 665.2 70.7C665.2 75.9 664.067 80.5333 661.8 84.6C659.533 88.6667 656.4 91.8333 652.4 94.1C648.4 96.3667 643.933 97.5 639 97.5C634.6 97.5 630.633 96.5667 627.1 94.7C623.633 92.8333 620.833 90.1333 618.7 86.6V97H611.9V22.8H619V54.4C621.2 51 624 48.4333 627.4 46.7C630.867 44.9 634.733 44 639 44ZM638.5 91.2C642.167 91.2 645.5 90.3667 648.5 88.7C651.5 86.9667 653.833 84.5333 655.5 81.4C657.233 78.2667 658.1 74.7 658.1 70.7C658.1 66.7 657.233 63.1333 655.5 60C653.833 56.8667 651.5 54.4667 648.5 52.8C645.5 51.0667 642.167 50.2 638.5 50.2C634.767 50.2 631.4 51.0667 628.4 52.8C625.467 54.4667 623.133 56.8667 621.4 60C619.733 63.1333 618.9 66.7 618.9 70.7C618.9 74.7 619.733 78.2667 621.4 81.4C623.133 84.5333 625.467 86.9667 628.4 88.7C631.4 90.3667 634.767 91.2 638.5 91.2ZM675.673 22.8H682.773V97H675.673V22.8ZM745.929 44.4V97H739.129V87.4C737.262 90.6 734.696 93.1 731.429 94.9C728.162 96.6333 724.429 97.5 720.229 97.5C713.362 97.5 707.929 95.6 703.929 91.8C699.996 87.9333 698.029 82.3 698.029 74.9V44.4H705.129V74.2C705.129 79.7333 706.496 83.9333 709.229 86.8C711.962 89.6667 715.862 91.1 720.929 91.1C726.462 91.1 730.829 89.4333 734.029 86.1C737.229 82.7 738.829 78 738.829 72V44.4H745.929ZM807.614 72.9H763.614C764.014 78.3667 766.114 82.8 769.914 86.2C773.714 89.5333 778.514 91.2 784.314 91.2C787.581 91.2 790.581 90.6333 793.314 89.5C796.047 88.3 798.414 86.5667 800.414 84.3L804.414 88.9C802.081 91.7 799.147 93.8333 795.614 95.3C792.147 96.7667 788.314 97.5 784.114 97.5C778.714 97.5 773.914 96.3667 769.714 94.1C765.581 91.7667 762.347 88.5667 760.014 84.5C757.681 80.4333 756.514 75.8333 756.514 70.7C756.514 65.5667 757.614 60.9667 759.814 56.9C762.081 52.8333 765.147 49.6667 769.014 47.4C772.947 45.1333 777.347 44 782.214 44C787.081 44 791.447 45.1333 795.314 47.4C799.181 49.6667 802.214 52.8333 804.414 56.9C806.614 60.9 807.714 65.5 807.714 70.7L807.614 72.9ZM782.214 50.1C777.147 50.1 772.881 51.7333 769.414 55C766.014 58.2 764.081 62.4 763.614 67.6H800.914C800.447 62.4 798.481 58.2 795.014 55C791.614 51.7333 787.347 50.1 782.214 50.1Z" fill="#3D5AFE"/>
<path d="M212.9 22.8H220V97H212.9V22.8ZM281.555 72.9H237.555C237.955 78.3667 240.055 82.8 243.855 86.2C247.655 89.5333 252.455 91.2 258.255 91.2C261.522 91.2 264.522 90.6333 267.255 89.5C269.989 88.3 272.355 86.5667 274.355 84.3L278.355 88.9C276.022 91.7 273.089 93.8333 269.555 95.3C266.089 96.7667 262.255 97.5 258.055 97.5C252.655 97.5 247.855 96.3667 243.655 94.1C239.522 91.7667 236.289 88.5667 233.955 84.5C231.622 80.4333 230.455 75.8333 230.455 70.7C230.455 65.5667 231.555 60.9667 233.755 56.9C236.022 52.8333 239.089 49.6667 242.955 47.4C246.889 45.1333 251.289 44 256.155 44C261.022 44 265.389 45.1333 269.255 47.4C273.122 49.6667 276.155 52.8333 278.355 56.9C280.555 60.9 281.655 65.5 281.655 70.7L281.555 72.9ZM256.155 50.1C251.089 50.1 246.822 51.7333 243.355 55C239.955 58.2 238.022 62.4 237.555 67.6H274.855C274.389 62.4 272.422 58.2 268.955 55C265.555 51.7333 261.289 50.1 256.155 50.1ZM309.042 44C315.909 44 321.176 45.7333 324.842 49.2C328.509 52.6 330.342 57.6667 330.342 64.4V97H323.542V88.8C321.942 91.5333 319.576 93.6667 316.442 95.2C313.376 96.7333 309.709 97.5 305.442 97.5C299.576 97.5 294.909 96.1 291.442 93.3C287.976 90.5 286.242 86.8 286.242 82.2C286.242 77.7333 287.842 74.1333 291.042 71.4C294.309 68.6667 299.476 67.3 306.542 67.3H323.242V64.1C323.242 59.5667 321.976 56.1333 319.442 53.8C316.909 51.4 313.209 50.2 308.342 50.2C305.009 50.2 301.809 50.7667 298.742 51.9C295.676 52.9667 293.042 54.4667 290.842 56.4L287.642 51.1C290.309 48.8333 293.509 47.1 297.242 45.9C300.976 44.6333 304.909 44 309.042 44ZM306.542 91.9C310.542 91.9 313.976 91 316.842 89.2C319.709 87.3333 321.842 84.6667 323.242 81.2V72.6H306.742C297.742 72.6 293.242 75.7333 293.242 82C293.242 85.0667 294.409 87.5 296.742 89.3C299.076 91.0333 302.342 91.9 306.542 91.9ZM352.427 54.7C354.093 51.1667 356.56 48.5 359.827 46.7C363.16 44.9 367.26 44 372.127 44V50.9L370.427 50.8C364.893 50.8 360.56 52.5 357.427 55.9C354.293 59.3 352.727 64.0667 352.727 70.2V97H345.627V44.4H352.427V54.7ZM407.782 44C414.382 44 419.615 45.9333 423.482 49.8C427.415 53.6 429.382 59.1667 429.382 66.5V97H422.282V67.2C422.282 61.7333 420.915 57.5667 418.182 54.7C415.449 51.8333 411.549 50.4 406.482 50.4C400.815 50.4 396.315 52.1 392.982 55.5C389.715 58.8333 388.082 63.4667 388.082 69.4V97H380.982V44.4H387.782V54.1C389.715 50.9 392.382 48.4333 395.782 46.7C399.249 44.9 403.249 44 407.782 44Z" fill="white"/>
<path d="M829 97.5C824.733 97.5 820.633 96.9 816.7 95.7C812.833 94.4333 809.8 92.8667 807.6 91L810.8 85.4C813 87.1333 815.767 88.5667 819.1 89.7C822.433 90.7667 825.9 91.3 829.5 91.3C834.3 91.3 837.833 90.5667 840.1 89.1C842.433 87.5667 843.6 85.4333 843.6 82.7C843.6 80.7667 842.967 79.2667 841.7 78.2C840.433 77.0667 838.833 76.2333 836.9 75.7C834.967 75.1 832.4 74.5333 829.2 74C824.933 73.2 821.5 72.4 818.9 71.6C816.3 70.7333 814.067 69.3 812.2 67.3C810.4 65.3 809.5 62.5333 809.5 59C809.5 54.6 811.333 51 815 48.2C818.667 45.4 823.767 44 830.3 44C833.7 44 837.1 44.4667 840.5 45.4C843.9 46.2667 846.7 47.4333 848.9 48.9L845.8 54.6C841.467 51.6 836.3 50.1 830.3 50.1C825.767 50.1 822.333 50.9 820 52.5C817.733 54.1 816.6 56.2 816.6 58.8C816.6 60.8 817.233 62.4 818.5 63.6C819.833 64.8 821.467 65.7 823.4 66.3C825.333 66.8333 828 67.4 831.4 68C835.6 68.8 838.967 69.6 841.5 70.4C844.033 71.2 846.2 72.5667 848 74.5C849.8 76.4333 850.7 79.1 850.7 82.5C850.7 87.1 848.767 90.7667 844.9 93.5C841.1 96.1667 835.8 97.5 829 97.5ZM886.926 44C891.859 44 896.326 45.1333 900.326 47.4C904.326 49.6 907.459 52.7333 909.726 56.8C911.992 60.8667 913.126 65.5 913.126 70.7C913.126 75.9667 911.992 80.6333 909.726 84.7C907.459 88.7667 904.326 91.9333 900.326 94.2C896.392 96.4 891.926 97.5 886.926 97.5C882.659 97.5 878.792 96.6333 875.326 94.9C871.926 93.1 869.126 90.5 866.926 87.1V116.4H859.826V44.4H866.626V54.8C868.759 51.3333 871.559 48.6667 875.026 46.8C878.559 44.9333 882.526 44 886.926 44ZM886.426 91.2C890.092 91.2 893.426 90.3667 896.426 88.7C899.426 86.9667 901.759 84.5333 903.426 81.4C905.159 78.2667 906.026 74.7 906.026 70.7C906.026 66.7 905.159 63.1667 903.426 60.1C901.759 56.9667 899.426 54.5333 896.426 52.8C893.426 51.0667 890.092 50.2 886.426 50.2C882.692 50.2 879.326 51.0667 876.326 52.8C873.392 54.5333 871.059 56.9667 869.326 60.1C867.659 63.1667 866.826 66.7 866.826 70.7C866.826 74.7 867.659 78.2667 869.326 81.4C871.059 84.5333 873.392 86.9667 876.326 88.7C879.326 90.3667 882.692 91.2 886.426 91.2ZM930.399 54.7C932.066 51.1667 934.533 48.5 937.799 46.7C941.133 44.9 945.233 44 950.099 44V50.9L948.399 50.8C942.866 50.8 938.533 52.5 935.399 55.9C932.266 59.3 930.699 64.0667 930.699 70.2V97H923.599V44.4H930.399V54.7ZM958.955 44.4H966.055V97H958.955V44.4ZM962.555 32.9C961.088 32.9 959.855 32.4 958.855 31.4C957.855 30.4 957.355 29.2 957.355 27.8C957.355 26.4667 957.855 25.3 958.855 24.3C959.855 23.3 961.088 22.8 962.555 22.8C964.021 22.8 965.255 23.3 966.255 24.3C967.255 25.2333 967.755 26.3667 967.755 27.7C967.755 29.1667 967.255 30.4 966.255 31.4C965.255 32.4 964.021 32.9 962.555 32.9ZM1008.61 44C1015.21 44 1020.44 45.9333 1024.31 49.8C1028.24 53.6 1030.21 59.1667 1030.21 66.5V97H1023.11V67.2C1023.11 61.7333 1021.74 57.5667 1019.01 54.7C1016.28 51.8333 1012.38 50.4 1007.31 50.4C1001.64 50.4 997.143 52.1 993.81 55.5C990.543 58.8333 988.91 63.4667 988.91 69.4V97H981.81V44.4H988.61V54.1C990.543 50.9 993.21 48.4333 996.61 46.7C1000.08 44.9 1004.08 44 1008.61 44ZM1073.19 93.8C1071.85 95 1070.19 95.9333 1068.19 96.6C1066.25 97.2 1064.22 97.5 1062.09 97.5C1057.15 97.5 1053.35 96.1667 1050.69 93.5C1048.02 90.8333 1046.69 87.0667 1046.69 82.2V50.4H1037.29V44.4H1046.69V32.9H1053.79V44.4H1069.79V50.4H1053.79V81.8C1053.79 84.9333 1054.55 87.3333 1056.09 89C1057.69 90.6 1059.95 91.4 1062.89 91.4C1064.35 91.4 1065.75 91.1667 1067.09 90.7C1068.49 90.2333 1069.69 89.5667 1070.69 88.7L1073.19 93.8Z" fill="white"/>
<rect x="1137" y="1" width="5" height="120" fill="#C4C4C4"/>
<path d="M1232.08 36C1239.23 36 1244.83 37.7067 1248.88 41.12C1252.93 44.5333 1254.96 49.2267 1254.96 55.2C1254.96 61.1733 1252.93 65.8667 1248.88 69.28C1244.83 72.64 1239.23 74.32 1232.08 74.32H1217.04V92H1211.12V36H1232.08ZM1231.92 69.12C1237.47 69.12 1241.71 67.92 1244.64 65.52C1247.57 63.0667 1249.04 59.6267 1249.04 55.2C1249.04 50.6667 1247.57 47.2 1244.64 44.8C1241.71 42.3467 1237.47 41.12 1231.92 41.12H1217.04V69.12H1231.92ZM1267.71 58.16C1269.04 55.3333 1271.01 53.2 1273.63 51.76C1276.29 50.32 1279.57 49.6 1283.47 49.6V55.12L1282.11 55.04C1277.68 55.04 1274.21 56.4 1271.71 59.12C1269.2 61.84 1267.95 65.6533 1267.95 70.56V92H1262.27V49.92H1267.71V58.16ZM1326.8 72.72H1291.6C1291.92 77.0933 1293.6 80.64 1296.64 83.36C1299.68 86.0267 1303.52 87.36 1308.16 87.36C1310.77 87.36 1313.17 86.9067 1315.36 86C1317.55 85.04 1319.44 83.6533 1321.04 81.84L1324.24 85.52C1322.37 87.76 1320.03 89.4667 1317.2 90.64C1314.43 91.8133 1311.36 92.4 1308 92.4C1303.68 92.4 1299.84 91.4933 1296.48 89.68C1293.17 87.8133 1290.59 85.2533 1288.72 82C1286.85 78.7467 1285.92 75.0667 1285.92 70.96C1285.92 66.8533 1286.8 63.1733 1288.56 59.92C1290.37 56.6667 1292.83 54.1333 1295.92 52.32C1299.07 50.5067 1302.59 49.6 1306.48 49.6C1310.37 49.6 1313.87 50.5067 1316.96 52.32C1320.05 54.1333 1322.48 56.6667 1324.24 59.92C1326 63.12 1326.88 66.8 1326.88 70.96L1326.8 72.72ZM1306.48 54.48C1302.43 54.48 1299.01 55.7867 1296.24 58.4C1293.52 60.96 1291.97 64.32 1291.6 68.48H1321.44C1321.07 64.32 1319.49 60.96 1316.72 58.4C1314 55.7867 1310.59 54.48 1306.48 54.48ZM1346.52 92.4C1343.11 92.4 1339.83 91.92 1336.68 90.96C1333.59 89.9467 1331.16 88.6933 1329.4 87.2L1331.96 82.72C1333.72 84.1067 1335.94 85.2533 1338.6 86.16C1341.27 87.0133 1344.04 87.44 1346.92 87.44C1350.76 87.44 1353.59 86.8533 1355.4 85.68C1357.27 84.4533 1358.2 82.7467 1358.2 80.56C1358.2 79.0133 1357.7 77.8133 1356.68 76.96C1355.67 76.0533 1354.39 75.3867 1352.84 74.96C1351.3 74.48 1349.24 74.0267 1346.68 73.6C1343.27 72.96 1340.52 72.32 1338.44 71.68C1336.36 70.9867 1334.58 69.84 1333.08 68.24C1331.64 66.64 1330.92 64.4267 1330.92 61.6C1330.92 58.08 1332.39 55.2 1335.32 52.96C1338.26 50.72 1342.34 49.6 1347.56 49.6C1350.28 49.6 1353 49.9733 1355.72 50.72C1358.44 51.4133 1360.68 52.3467 1362.44 53.52L1359.96 58.08C1356.5 55.68 1352.36 54.48 1347.56 54.48C1343.94 54.48 1341.19 55.12 1339.32 56.4C1337.51 57.68 1336.6 59.36 1336.6 61.44C1336.6 63.04 1337.11 64.32 1338.12 65.28C1339.19 66.24 1340.5 66.96 1342.04 67.44C1343.59 67.8667 1345.72 68.32 1348.44 68.8C1351.8 69.44 1354.5 70.08 1356.52 70.72C1358.55 71.36 1360.28 72.4533 1361.72 74C1363.16 75.5467 1363.88 77.68 1363.88 80.4C1363.88 84.08 1362.34 87.0133 1359.24 89.2C1356.2 91.3333 1351.96 92.4 1346.52 92.4ZM1407.82 72.72H1372.62C1372.94 77.0933 1374.62 80.64 1377.66 83.36C1380.7 86.0267 1384.54 87.36 1389.18 87.36C1391.8 87.36 1394.2 86.9067 1396.38 86C1398.57 85.04 1400.46 83.6533 1402.06 81.84L1405.26 85.52C1403.4 87.76 1401.05 89.4667 1398.22 90.64C1395.45 91.8133 1392.38 92.4 1389.02 92.4C1384.7 92.4 1380.86 91.4933 1377.5 89.68C1374.2 87.8133 1371.61 85.2533 1369.74 82C1367.88 78.7467 1366.94 75.0667 1366.94 70.96C1366.94 66.8533 1367.82 63.1733 1369.58 59.92C1371.4 56.6667 1373.85 54.1333 1376.94 52.32C1380.09 50.5067 1383.61 49.6 1387.5 49.6C1391.4 49.6 1394.89 50.5067 1397.98 52.32C1401.08 54.1333 1403.5 56.6667 1405.26 59.92C1407.02 63.12 1407.9 66.8 1407.9 70.96L1407.82 72.72ZM1387.5 54.48C1383.45 54.48 1380.04 55.7867 1377.26 58.4C1374.54 60.96 1373 64.32 1372.62 68.48H1402.46C1402.09 64.32 1400.52 60.96 1397.74 58.4C1395.02 55.7867 1391.61 54.48 1387.5 54.48ZM1437.7 49.6C1442.98 49.6 1447.17 51.1467 1450.26 54.24C1453.41 57.28 1454.98 61.7333 1454.98 67.6V92H1449.3V68.16C1449.3 63.7867 1448.21 60.4533 1446.02 58.16C1443.84 55.8667 1440.72 54.72 1436.66 54.72C1432.13 54.72 1428.53 56.08 1425.86 58.8C1423.25 61.4667 1421.94 65.1733 1421.94 69.92V92H1416.26V49.92H1421.7V57.68C1423.25 55.12 1425.38 53.1467 1428.1 51.76C1430.88 50.32 1434.08 49.6 1437.7 49.6ZM1489.36 89.44C1488.3 90.4 1486.96 91.1467 1485.36 91.68C1483.82 92.16 1482.19 92.4 1480.48 92.4C1476.54 92.4 1473.5 91.3333 1471.36 89.2C1469.23 87.0667 1468.16 84.0533 1468.16 80.16V54.72H1460.64V49.92H1468.16V40.72H1473.84V49.92H1486.64V54.72H1473.84V79.84C1473.84 82.3467 1474.46 84.2667 1475.68 85.6C1476.96 86.88 1478.78 87.52 1481.12 87.52C1482.3 87.52 1483.42 87.3333 1484.48 86.96C1485.6 86.5867 1486.56 86.0533 1487.36 85.36L1489.36 89.44ZM1531.66 72.72H1496.46C1496.78 77.0933 1498.46 80.64 1501.5 83.36C1504.54 86.0267 1508.38 87.36 1513.02 87.36C1515.63 87.36 1518.03 86.9067 1520.22 86C1522.41 85.04 1524.3 83.6533 1525.9 81.84L1529.1 85.52C1527.23 87.76 1524.89 89.4667 1522.06 90.64C1519.29 91.8133 1516.22 92.4 1512.86 92.4C1508.54 92.4 1504.7 91.4933 1501.34 89.68C1498.03 87.8133 1495.45 85.2533 1493.58 82C1491.71 78.7467 1490.78 75.0667 1490.78 70.96C1490.78 66.8533 1491.66 63.1733 1493.42 59.92C1495.23 56.6667 1497.69 54.1333 1500.78 52.32C1503.93 50.5067 1507.45 49.6 1511.34 49.6C1515.23 49.6 1518.73 50.5067 1521.82 52.32C1524.91 54.1333 1527.34 56.6667 1529.1 59.92C1530.86 63.12 1531.74 66.8 1531.74 70.96L1531.66 72.72ZM1511.34 54.48C1507.29 54.48 1503.87 55.7867 1501.1 58.4C1498.38 60.96 1496.83 64.32 1496.46 68.48H1526.3C1525.93 64.32 1524.35 60.96 1521.58 58.4C1518.86 55.7867 1515.45 54.48 1511.34 54.48ZM1578.5 32.64V92H1573.06V83.68C1571.35 86.5067 1569.09 88.6667 1566.26 90.16C1563.49 91.6533 1560.34 92.4 1556.82 92.4C1552.87 92.4 1549.3 91.4933 1546.1 89.68C1542.9 87.8667 1540.39 85.3333 1538.58 82.08C1536.77 78.8267 1535.86 75.12 1535.86 70.96C1535.86 66.8 1536.77 63.0933 1538.58 59.84C1540.39 56.5867 1542.9 54.08 1546.1 52.32C1549.3 50.5067 1552.87 49.6 1556.82 49.6C1560.23 49.6 1563.3 50.32 1566.02 51.76C1568.79 53.1467 1571.06 55.2 1572.82 57.92V32.64H1578.5ZM1557.3 87.36C1560.23 87.36 1562.87 86.6933 1565.22 85.36C1567.62 83.9733 1569.49 82.0267 1570.82 79.52C1572.21 77.0133 1572.9 74.16 1572.9 70.96C1572.9 67.76 1572.21 64.9067 1570.82 62.4C1569.49 59.8933 1567.62 57.9733 1565.22 56.64C1562.87 55.2533 1560.23 54.56 1557.3 54.56C1554.31 54.56 1551.62 55.2533 1549.22 56.64C1546.87 57.9733 1545.01 59.8933 1543.62 62.4C1542.29 64.9067 1541.62 67.76 1541.62 70.96C1541.62 74.16 1542.29 77.0133 1543.62 79.52C1545.01 82.0267 1546.87 83.9733 1549.22 85.36C1551.62 86.6933 1554.31 87.36 1557.3 87.36ZM1630.54 49.6C1634.48 49.6 1638.06 50.5067 1641.26 52.32C1644.46 54.08 1646.96 56.5867 1648.78 59.84C1650.59 63.0933 1651.5 66.8 1651.5 70.96C1651.5 75.12 1650.59 78.8267 1648.78 82.08C1646.96 85.3333 1644.46 87.8667 1641.26 89.68C1638.06 91.4933 1634.48 92.4 1630.54 92.4C1627.02 92.4 1623.84 91.6533 1621.02 90.16C1618.24 88.6667 1616 86.5067 1614.3 83.68V92H1608.86V32.64H1614.54V57.92C1616.3 55.2 1618.54 53.1467 1621.26 51.76C1624.03 50.32 1627.12 49.6 1630.54 49.6ZM1630.14 87.36C1633.07 87.36 1635.74 86.6933 1638.14 85.36C1640.54 83.9733 1642.4 82.0267 1643.74 79.52C1645.12 77.0133 1645.82 74.16 1645.82 70.96C1645.82 67.76 1645.12 64.9067 1643.74 62.4C1642.4 59.8933 1640.54 57.9733 1638.14 56.64C1635.74 55.2533 1633.07 54.56 1630.14 54.56C1627.15 54.56 1624.46 55.2533 1622.06 56.64C1619.71 57.9733 1617.84 59.8933 1616.46 62.4C1615.12 64.9067 1614.46 67.76 1614.46 70.96C1614.46 74.16 1615.12 77.0133 1616.46 79.52C1617.84 82.0267 1619.71 83.9733 1622.06 85.36C1624.46 86.6933 1627.15 87.36 1630.14 87.36ZM1694.06 49.92L1673.02 97.04C1671.32 100.987 1669.34 103.787 1667.1 105.44C1664.86 107.093 1662.17 107.92 1659.02 107.92C1657 107.92 1655.1 107.6 1653.34 106.96C1651.58 106.32 1650.06 105.36 1648.78 104.08L1651.42 99.84C1653.56 101.973 1656.12 103.04 1659.1 103.04C1661.02 103.04 1662.65 102.507 1663.98 101.44C1665.37 100.373 1666.65 98.56 1667.82 96L1669.66 91.92L1650.86 49.92H1656.78L1672.62 85.68L1688.46 49.92H1694.06ZM1742.28 92.48C1736.73 92.48 1731.69 91.2533 1727.16 88.8C1722.68 86.2933 1719.16 82.88 1716.6 78.56C1714.09 74.24 1712.84 69.3867 1712.84 64C1712.84 58.6133 1714.09 53.76 1716.6 49.44C1719.16 45.12 1722.68 41.7333 1727.16 39.28C1731.69 36.7733 1736.73 35.52 1742.28 35.52C1747.83 35.52 1752.81 36.7467 1757.24 39.2C1761.72 41.6533 1765.24 45.0667 1767.8 49.44C1770.36 53.76 1771.64 58.6133 1771.64 64C1771.64 69.3867 1770.36 74.2667 1767.8 78.64C1765.24 82.96 1761.72 86.3467 1757.24 88.8C1752.81 91.2533 1747.83 92.48 1742.28 92.48ZM1742.28 87.2C1746.71 87.2 1750.71 86.2133 1754.28 84.24C1757.85 82.2133 1760.65 79.44 1762.68 75.92C1764.71 72.3467 1765.72 68.3733 1765.72 64C1765.72 59.6267 1764.71 55.68 1762.68 52.16C1760.65 48.5867 1757.85 45.8133 1754.28 43.84C1750.71 41.8133 1746.71 40.8 1742.28 40.8C1737.85 40.8 1733.83 41.8133 1730.2 43.84C1726.63 45.8133 1723.8 48.5867 1721.72 52.16C1719.69 55.68 1718.68 59.6267 1718.68 64C1718.68 68.3733 1719.69 72.3467 1721.72 75.92C1723.8 79.44 1726.63 82.2133 1730.2 84.24C1733.83 86.2133 1737.85 87.2 1742.28 87.2ZM1802.19 49.6C1806.14 49.6 1809.71 50.5067 1812.91 52.32C1816.11 54.08 1818.62 56.5867 1820.43 59.84C1822.24 63.0933 1823.15 66.8 1823.15 70.96C1823.15 75.1733 1822.24 78.9067 1820.43 82.16C1818.62 85.4133 1816.11 87.9467 1812.91 89.76C1809.76 91.52 1806.19 92.4 1802.19 92.4C1798.78 92.4 1795.68 91.7067 1792.91 90.32C1790.19 88.88 1787.95 86.8 1786.19 84.08V107.52H1780.51V49.92H1785.95V58.24C1787.66 55.4667 1789.9 53.3333 1792.67 51.84C1795.5 50.3467 1798.67 49.6 1802.19 49.6ZM1801.79 87.36C1804.72 87.36 1807.39 86.6933 1809.79 85.36C1812.19 83.9733 1814.06 82.0267 1815.39 79.52C1816.78 77.0133 1817.47 74.16 1817.47 70.96C1817.47 67.76 1816.78 64.9333 1815.39 62.48C1814.06 59.9733 1812.19 58.0267 1809.79 56.64C1807.39 55.2533 1804.72 54.56 1801.79 54.56C1798.8 54.56 1796.11 55.2533 1793.71 56.64C1791.36 58.0267 1789.5 59.9733 1788.11 62.48C1786.78 64.9333 1786.11 67.76 1786.11 70.96C1786.11 74.16 1786.78 77.0133 1788.11 79.52C1789.5 82.0267 1791.36 83.9733 1793.71 85.36C1796.11 86.6933 1798.8 87.36 1801.79 87.36ZM1868.17 72.72H1832.97C1833.29 77.0933 1834.97 80.64 1838.01 83.36C1841.05 86.0267 1844.89 87.36 1849.53 87.36C1852.14 87.36 1854.54 86.9067 1856.73 86C1858.92 85.04 1860.81 83.6533 1862.41 81.84L1865.61 85.52C1863.74 87.76 1861.4 89.4667 1858.57 90.64C1855.8 91.8133 1852.73 92.4 1849.37 92.4C1845.05 92.4 1841.21 91.4933 1837.85 89.68C1834.54 87.8133 1831.96 85.2533 1830.09 82C1828.22 78.7467 1827.29 75.0667 1827.29 70.96C1827.29 66.8533 1828.17 63.1733 1829.93 59.92C1831.74 56.6667 1834.2 54.1333 1837.29 52.32C1840.44 50.5067 1843.96 49.6 1847.85 49.6C1851.74 49.6 1855.24 50.5067 1858.33 52.32C1861.42 54.1333 1863.85 56.6667 1865.61 59.92C1867.37 63.12 1868.25 66.8 1868.25 70.96L1868.17 72.72ZM1847.85 54.48C1843.8 54.48 1840.38 55.7867 1837.61 58.4C1834.89 60.96 1833.34 64.32 1832.97 68.48H1862.81C1862.44 64.32 1860.86 60.96 1858.09 58.4C1855.37 55.7867 1851.96 54.48 1847.85 54.48ZM1898.05 49.6C1903.33 49.6 1907.52 51.1467 1910.61 54.24C1913.76 57.28 1915.33 61.7333 1915.33 67.6V92H1909.65V68.16C1909.65 63.7867 1908.56 60.4533 1906.37 58.16C1904.18 55.8667 1901.06 54.72 1897.01 54.72C1892.48 54.72 1888.88 56.08 1886.21 58.8C1883.6 61.4667 1882.29 65.1733 1882.29 69.92V92H1876.61V49.92H1882.05V57.68C1883.6 55.12 1885.73 53.1467 1888.45 51.76C1891.22 50.32 1894.42 49.6 1898.05 49.6ZM1944.19 92.48C1940.03 92.48 1936.03 91.8133 1932.19 90.48C1928.4 89.1467 1925.47 87.3867 1923.39 85.2L1925.71 80.64C1927.74 82.6667 1930.43 84.32 1933.79 85.6C1937.15 86.8267 1940.62 87.44 1944.19 87.44C1949.2 87.44 1952.96 86.5333 1955.47 84.72C1957.98 82.8533 1959.23 80.4533 1959.23 77.52C1959.23 75.28 1958.54 73.4933 1957.15 72.16C1955.82 70.8267 1954.16 69.8133 1952.19 69.12C1950.22 68.3733 1947.47 67.5733 1943.95 66.72C1939.74 65.6533 1936.38 64.64 1933.87 63.68C1931.36 62.6667 1929.2 61.1467 1927.39 59.12C1925.63 57.0933 1924.75 54.3467 1924.75 50.88C1924.75 48.0533 1925.5 45.4933 1926.99 43.2C1928.48 40.8533 1930.78 38.9867 1933.87 37.6C1936.96 36.2133 1940.8 35.52 1945.39 35.52C1948.59 35.52 1951.71 35.9733 1954.75 36.88C1957.84 37.7333 1960.51 38.9333 1962.75 40.48L1960.75 45.2C1958.4 43.6533 1955.9 42.5067 1953.23 41.76C1950.56 40.96 1947.95 40.56 1945.39 40.56C1940.48 40.56 1936.78 41.52 1934.27 43.44C1931.82 45.3067 1930.59 47.7333 1930.59 50.72C1930.59 52.96 1931.26 54.7733 1932.59 56.16C1933.98 57.4933 1935.68 58.5333 1937.71 59.28C1939.79 59.9733 1942.56 60.7467 1946.03 61.6C1950.14 62.6133 1953.44 63.6267 1955.95 64.64C1958.51 65.6 1960.67 67.0933 1962.43 69.12C1964.19 71.0933 1965.07 73.7867 1965.07 77.2C1965.07 80.0267 1964.3 82.6133 1962.75 84.96C1961.26 87.2533 1958.94 89.0933 1955.79 90.48C1952.64 91.8133 1948.78 92.48 1944.19 92.48ZM1988.29 49.6C1993.78 49.6 1998 50.9867 2000.93 53.76C2003.86 56.48 2005.33 60.5333 2005.33 65.92V92H1999.89V85.44C1998.61 87.6267 1996.72 89.3333 1994.21 90.56C1991.76 91.7867 1988.82 92.4 1985.41 92.4C1980.72 92.4 1976.98 91.28 1974.21 89.04C1971.44 86.8 1970.05 83.84 1970.05 80.16C1970.05 76.5867 1971.33 73.7067 1973.89 71.52C1976.5 69.3333 1980.64 68.24 1986.29 68.24H1999.65V65.68C1999.65 62.0533 1998.64 59.3067 1996.61 57.44C1994.58 55.52 1991.62 54.56 1987.73 54.56C1985.06 54.56 1982.5 55.0133 1980.05 55.92C1977.6 56.7733 1975.49 57.9733 1973.73 59.52L1971.17 55.28C1973.3 53.4667 1975.86 52.08 1978.85 51.12C1981.84 50.1067 1984.98 49.6 1988.29 49.6ZM1986.29 87.92C1989.49 87.92 1992.24 87.2 1994.53 85.76C1996.82 84.2667 1998.53 82.1333 1999.65 79.36V72.48H1986.45C1979.25 72.48 1975.65 74.9867 1975.65 80C1975.65 82.4533 1976.58 84.4 1978.45 85.84C1980.32 87.2267 1982.93 87.92 1986.29 87.92ZM2055.48 49.92V92H2050.04V84.32C2048.54 86.88 2046.49 88.88 2043.88 90.32C2041.26 91.7067 2038.28 92.4 2034.92 92.4C2029.42 92.4 2025.08 90.88 2021.88 87.84C2018.73 84.7467 2017.16 80.24 2017.16 74.32V49.92H2022.84V73.76C2022.84 78.1867 2023.93 81.5467 2026.12 83.84C2028.3 86.1333 2031.42 87.28 2035.48 87.28C2039.9 87.28 2043.4 85.9467 2045.96 83.28C2048.52 80.56 2049.8 76.8 2049.8 72V49.92H2055.48ZM2085.63 92.4C2081.47 92.4 2077.73 91.4933 2074.43 89.68C2071.17 87.8667 2068.61 85.3333 2066.75 82.08C2064.88 78.7733 2063.95 75.0667 2063.95 70.96C2063.95 66.8533 2064.88 63.1733 2066.75 59.92C2068.61 56.6667 2071.17 54.1333 2074.43 52.32C2077.73 50.5067 2081.47 49.6 2085.63 49.6C2089.25 49.6 2092.48 50.32 2095.31 51.76C2098.19 53.1467 2100.45 55.2 2102.11 57.92L2097.87 60.8C2096.48 58.72 2094.72 57.1733 2092.59 56.16C2090.45 55.0933 2088.13 54.56 2085.63 54.56C2082.59 54.56 2079.84 55.2533 2077.39 56.64C2074.99 57.9733 2073.09 59.8933 2071.71 62.4C2070.37 64.9067 2069.71 67.76 2069.71 70.96C2069.71 74.2133 2070.37 77.0933 2071.71 79.6C2073.09 82.0533 2074.99 83.9733 2077.39 85.36C2079.84 86.6933 2082.59 87.36 2085.63 87.36C2088.13 87.36 2090.45 86.8533 2092.59 85.84C2094.72 84.8267 2096.48 83.28 2097.87 81.2L2102.11 84.08C2100.45 86.8 2098.19 88.88 2095.31 90.32C2092.43 91.7067 2089.2 92.4 2085.63 92.4ZM2146 72.72H2110.8C2111.12 77.0933 2112.8 80.64 2115.84 83.36C2118.88 86.0267 2122.72 87.36 2127.36 87.36C2129.97 87.36 2132.37 86.9067 2134.56 86C2136.75 85.04 2138.64 83.6533 2140.24 81.84L2143.44 85.52C2141.57 87.76 2139.23 89.4667 2136.4 90.64C2133.63 91.8133 2130.56 92.4 2127.2 92.4C2122.88 92.4 2119.04 91.4933 2115.68 89.68C2112.37 87.8133 2109.79 85.2533 2107.92 82C2106.05 78.7467 2105.12 75.0667 2105.12 70.96C2105.12 66.8533 2106 63.1733 2107.76 59.92C2109.57 56.6667 2112.03 54.1333 2115.12 52.32C2118.27 50.5067 2121.79 49.6 2125.68 49.6C2129.57 49.6 2133.07 50.5067 2136.16 52.32C2139.25 54.1333 2141.68 56.6667 2143.44 59.92C2145.2 63.12 2146.08 66.8 2146.08 70.96L2146 72.72ZM2125.68 54.48C2121.63 54.48 2118.21 55.7867 2115.44 58.4C2112.72 60.96 2111.17 64.32 2110.8 68.48H2140.64C2140.27 64.32 2138.69 60.96 2135.92 58.4C2133.2 55.7867 2129.79 54.48 2125.68 54.48Z" fill="#FE6C3E"/>
<path d="M533.72 90L520.36 72.4L506.92 90H500.52L517.16 68.4L501.32 47.92H507.72L520.36 64.4L533 47.92H539.24L523.4 68.4L540.2 90H533.72Z" fill="white"/>
</svg>
