<svg width="847" height="225" viewBox="0 0 847 225" fill="none" xmlns="http://www.w3.org/2000/svg">
<path d="M25.9 30.9C29.3533 30.9 32.48 31.6933 35.28 33.28C38.08 34.82 40.2733 37.0133 41.86 39.86C43.4467 42.7067 44.24 45.95 44.24 49.59C44.24 53.23 43.4467 56.4733 41.86 59.32C40.2733 62.1667 38.08 64.3833 35.28 65.97C32.48 67.5567 29.3533 68.35 25.9 68.35C22.82 68.35 20.0433 67.6967 17.57 66.39C15.1433 65.0833 13.1833 63.1933 11.69 60.72V68H6.93V16.06H11.9V38.18C13.44 35.8 15.4 34.0033 17.78 32.79C20.2067 31.53 22.9133 30.9 25.9 30.9ZM25.55 63.94C28.1167 63.94 30.45 63.3567 32.55 62.19C34.65 60.9767 36.2833 59.2733 37.45 57.08C38.6633 54.8867 39.27 52.39 39.27 49.59C39.27 46.79 38.6633 44.2933 37.45 42.1C36.2833 39.9067 34.65 38.2267 32.55 37.06C30.45 35.8467 28.1167 35.24 25.55 35.24C22.9367 35.24 20.58 35.8467 18.48 37.06C16.4267 38.2267 14.7933 39.9067 13.58 42.1C12.4133 44.2933 11.83 46.79 11.83 49.59C11.83 52.39 12.4133 54.8867 13.58 57.08C14.7933 59.2733 16.4267 60.9767 18.48 62.19C20.58 63.3567 22.9367 63.94 25.55 63.94ZM51.5714 16.06H56.5414V68H51.5714V16.06ZM100.75 31.18V68H95.9902V61.28C94.6836 63.52 92.8869 65.27 90.6002 66.53C88.3136 67.7433 85.7002 68.35 82.7602 68.35C77.9536 68.35 74.1502 67.02 71.3502 64.36C68.5969 61.6533 67.2202 57.71 67.2202 52.53V31.18H72.1902V52.04C72.1902 55.9133 73.1469 58.8533 75.0602 60.86C76.9736 62.8667 79.7036 63.87 83.2502 63.87C87.1236 63.87 90.1802 62.7033 92.4202 60.37C94.6602 57.99 95.7802 54.7 95.7802 50.5V31.18H100.75ZM143.93 51.13H113.13C113.41 54.9567 114.88 58.06 117.54 60.44C120.2 62.7733 123.56 63.94 127.62 63.94C129.907 63.94 132.007 63.5433 133.92 62.75C135.833 61.91 137.49 60.6967 138.89 59.11L141.69 62.33C140.057 64.29 138.003 65.7833 135.53 66.81C133.103 67.8367 130.42 68.35 127.48 68.35C123.7 68.35 120.34 67.5567 117.4 65.97C114.507 64.3367 112.243 62.0967 110.61 59.25C108.977 56.4033 108.16 53.1833 108.16 49.59C108.16 45.9967 108.93 42.7767 110.47 39.93C112.057 37.0833 114.203 34.8667 116.91 33.28C119.663 31.6933 122.743 30.9 126.15 30.9C129.557 30.9 132.613 31.6933 135.32 33.28C138.027 34.8667 140.15 37.0833 141.69 39.93C143.23 42.73 144 45.95 144 49.59L143.93 51.13ZM126.15 35.17C122.603 35.17 119.617 36.3133 117.19 38.6C114.81 40.84 113.457 43.78 113.13 47.42H139.24C138.913 43.78 137.537 40.84 135.11 38.6C132.73 36.3133 129.743 35.17 126.15 35.17Z" fill="#3D5AFE"/>
<path d="M154.93 16.06H159.9V68H154.93V16.06ZM202.989 51.13H172.189C172.469 54.9567 173.939 58.06 176.599 60.44C179.259 62.7733 182.619 63.94 186.679 63.94C188.965 63.94 191.065 63.5433 192.979 62.75C194.892 61.91 196.549 60.6967 197.949 59.11L200.749 62.33C199.115 64.29 197.062 65.7833 194.589 66.81C192.162 67.8367 189.479 68.35 186.539 68.35C182.759 68.35 179.399 67.5567 176.459 65.97C173.565 64.3367 171.302 62.0967 169.669 59.25C168.035 56.4033 167.219 53.1833 167.219 49.59C167.219 45.9967 167.989 42.7767 169.529 39.93C171.115 37.0833 173.262 34.8667 175.969 33.28C178.722 31.6933 181.802 30.9 185.209 30.9C188.615 30.9 191.672 31.6933 194.379 33.28C197.085 34.8667 199.209 37.0833 200.749 39.93C202.289 42.73 203.059 45.95 203.059 49.59L202.989 51.13ZM185.209 35.17C181.662 35.17 178.675 36.3133 176.249 38.6C173.869 40.84 172.515 43.78 172.189 47.42H198.299C197.972 43.78 196.595 40.84 194.169 38.6C191.789 36.3133 188.802 35.17 185.209 35.17ZM222.23 30.9C227.036 30.9 230.723 32.1133 233.29 34.54C235.856 36.92 237.14 40.4667 237.14 45.18V68H232.38V62.26C231.26 64.1733 229.603 65.6667 227.41 66.74C225.263 67.8133 222.696 68.35 219.71 68.35C215.603 68.35 212.336 67.37 209.91 65.41C207.483 63.45 206.27 60.86 206.27 57.64C206.27 54.5133 207.39 51.9933 209.63 50.08C211.916 48.1667 215.533 47.21 220.48 47.21H232.17V44.97C232.17 41.7967 231.283 39.3933 229.51 37.76C227.736 36.08 225.146 35.24 221.74 35.24C219.406 35.24 217.166 35.6367 215.02 36.43C212.873 37.1767 211.03 38.2267 209.49 39.58L207.25 35.87C209.116 34.2833 211.356 33.07 213.97 32.23C216.583 31.3433 219.336 30.9 222.23 30.9ZM220.48 64.43C223.28 64.43 225.683 63.8 227.69 62.54C229.696 61.2333 231.19 59.3667 232.17 56.94V50.92H220.62C214.32 50.92 211.17 53.1133 211.17 57.5C211.17 59.6467 211.986 61.35 213.62 62.61C215.253 63.8233 217.54 64.43 220.48 64.43ZM252.599 38.39C253.765 35.9167 255.492 34.05 257.779 32.79C260.112 31.53 262.982 30.9 266.389 30.9V35.73L265.199 35.66C261.325 35.66 258.292 36.85 256.099 39.23C253.905 41.61 252.809 44.9467 252.809 49.24V68H247.839V31.18H252.599V38.39ZM291.347 30.9C295.967 30.9 299.631 32.2533 302.337 34.96C305.091 37.62 306.467 41.5167 306.467 46.65V68H301.497V47.14C301.497 43.3133 300.541 40.3967 298.627 38.39C296.714 36.3833 293.984 35.38 290.437 35.38C286.471 35.38 283.321 36.57 280.987 38.95C278.701 41.2833 277.557 44.5267 277.557 48.68V68H272.587V31.18H277.347V37.97C278.701 35.73 280.567 34.0033 282.947 32.79C285.374 31.53 288.174 30.9 291.347 30.9Z" fill="white"/>
<path d="M490.4 68.42C485.547 68.42 481.137 67.3467 477.17 65.2C473.25 63.0067 470.17 60.02 467.93 56.24C465.737 52.46 464.64 48.2133 464.64 43.5C464.64 38.7867 465.737 34.54 467.93 30.76C470.17 26.98 473.25 24.0167 477.17 21.87C481.137 19.6767 485.547 18.58 490.4 18.58C495.253 18.58 499.617 19.6533 503.49 21.8C507.41 23.9467 510.49 26.9333 512.73 30.76C514.97 34.54 516.09 38.7867 516.09 43.5C516.09 48.2133 514.97 52.4833 512.73 56.31C510.49 60.09 507.41 63.0533 503.49 65.2C499.617 67.3467 495.253 68.42 490.4 68.42ZM490.4 63.8C494.273 63.8 497.773 62.9367 500.9 61.21C504.027 59.4367 506.477 57.01 508.25 53.93C510.023 50.8033 510.91 47.3267 510.91 43.5C510.91 39.6733 510.023 36.22 508.25 33.14C506.477 30.0133 504.027 27.5867 500.9 25.86C497.773 24.0867 494.273 23.2 490.4 23.2C486.527 23.2 483.003 24.0867 479.83 25.86C476.703 27.5867 474.23 30.0133 472.41 33.14C470.637 36.22 469.75 39.6733 469.75 43.5C469.75 47.3267 470.637 50.8033 472.41 53.93C474.23 57.01 476.703 59.4367 479.83 61.21C483.003 62.9367 486.527 63.8 490.4 63.8ZM542.821 30.9C546.274 30.9 549.401 31.6933 552.201 33.28C555.001 34.82 557.194 37.0133 558.781 39.86C560.367 42.7067 561.161 45.95 561.161 49.59C561.161 53.2767 560.367 56.5433 558.781 59.39C557.194 62.2367 555.001 64.4533 552.201 66.04C549.447 67.58 546.321 68.35 542.821 68.35C539.834 68.35 537.127 67.7433 534.701 66.53C532.321 65.27 530.361 63.45 528.821 61.07V81.58H523.851V31.18H528.611V38.46C530.104 36.0333 532.064 34.1667 534.491 32.86C536.964 31.5533 539.741 30.9 542.821 30.9ZM542.471 63.94C545.037 63.94 547.371 63.3567 549.471 62.19C551.571 60.9767 553.204 59.2733 554.371 57.08C555.584 54.8867 556.191 52.39 556.191 49.59C556.191 46.79 555.584 44.3167 554.371 42.17C553.204 39.9767 551.571 38.2733 549.471 37.06C547.371 35.8467 545.037 35.24 542.471 35.24C539.857 35.24 537.501 35.8467 535.401 37.06C533.347 38.2733 531.714 39.9767 530.501 42.17C529.334 44.3167 528.751 46.79 528.751 49.59C528.751 52.39 529.334 54.8867 530.501 57.08C531.714 59.2733 533.347 60.9767 535.401 62.19C537.501 63.3567 539.857 63.94 542.471 63.94ZM600.552 51.13H569.752C570.032 54.9567 571.502 58.06 574.162 60.44C576.822 62.7733 580.182 63.94 584.242 63.94C586.529 63.94 588.629 63.5433 590.542 62.75C592.455 61.91 594.112 60.6967 595.512 59.11L598.312 62.33C596.679 64.29 594.625 65.7833 592.152 66.81C589.725 67.8367 587.042 68.35 584.102 68.35C580.322 68.35 576.962 67.5567 574.022 65.97C571.129 64.3367 568.865 62.0967 567.232 59.25C565.599 56.4033 564.782 53.1833 564.782 49.59C564.782 45.9967 565.552 42.7767 567.092 39.93C568.679 37.0833 570.825 34.8667 573.532 33.28C576.285 31.6933 579.365 30.9 582.772 30.9C586.179 30.9 589.235 31.6933 591.942 33.28C594.649 34.8667 596.772 37.0833 598.312 39.93C599.852 42.73 600.622 45.95 600.622 49.59L600.552 51.13ZM582.772 35.17C579.225 35.17 576.239 36.3133 573.812 38.6C571.432 40.84 570.079 43.78 569.752 47.42H595.862C595.535 43.78 594.159 40.84 591.732 38.6C589.352 36.3133 586.365 35.17 582.772 35.17ZM626.698 30.9C631.318 30.9 634.982 32.2533 637.688 34.96C640.442 37.62 641.818 41.5167 641.818 46.65V68H636.848V47.14C636.848 43.3133 635.892 40.3967 633.978 38.39C632.065 36.3833 629.335 35.38 625.788 35.38C621.822 35.38 618.672 36.57 616.338 38.95C614.052 41.2833 612.908 44.5267 612.908 48.68V68H607.938V31.18H612.698V37.97C614.052 35.73 615.918 34.0033 618.298 32.79C620.725 31.53 623.525 30.9 626.698 30.9ZM667.071 68.42C663.431 68.42 659.931 67.8367 656.571 66.67C653.258 65.5033 650.691 63.9633 648.871 62.05L650.901 58.06C652.675 59.8333 655.031 61.28 657.971 62.4C660.911 63.4733 663.945 64.01 667.071 64.01C671.458 64.01 674.748 63.2167 676.941 61.63C679.135 59.9967 680.231 57.8967 680.231 55.33C680.231 53.37 679.625 51.8067 678.411 50.64C677.245 49.4733 675.798 48.5867 674.071 47.98C672.345 47.3267 669.941 46.6267 666.861 45.88C663.175 44.9467 660.235 44.06 658.041 43.22C655.848 42.3333 653.958 41.0033 652.371 39.23C650.831 37.4567 650.061 35.0533 650.061 32.02C650.061 29.5467 650.715 27.3067 652.021 25.3C653.328 23.2467 655.335 21.6133 658.041 20.4C660.748 19.1867 664.108 18.58 668.121 18.58C670.921 18.58 673.651 18.9767 676.311 19.77C679.018 20.5167 681.351 21.5667 683.311 22.92L681.561 27.05C679.508 25.6967 677.315 24.6933 674.981 24.04C672.648 23.34 670.361 22.99 668.121 22.99C663.828 22.99 660.585 23.83 658.391 25.51C656.245 27.1433 655.171 29.2667 655.171 31.88C655.171 33.84 655.755 35.4267 656.921 36.64C658.135 37.8067 659.628 38.7167 661.401 39.37C663.221 39.9767 665.648 40.6533 668.681 41.4C672.275 42.2867 675.168 43.1733 677.361 44.06C679.601 44.9 681.491 46.2067 683.031 47.98C684.571 49.7067 685.341 52.0633 685.341 55.05C685.341 57.5233 684.665 59.7867 683.311 61.84C682.005 63.8467 679.975 65.4567 677.221 66.67C674.468 67.8367 671.085 68.42 667.071 68.42ZM705.658 30.9C710.464 30.9 714.151 32.1133 716.718 34.54C719.284 36.92 720.568 40.4667 720.568 45.18V68H715.808V62.26C714.688 64.1733 713.031 65.6667 710.838 66.74C708.691 67.8133 706.124 68.35 703.138 68.35C699.031 68.35 695.764 67.37 693.338 65.41C690.911 63.45 689.698 60.86 689.698 57.64C689.698 54.5133 690.818 51.9933 693.058 50.08C695.344 48.1667 698.961 47.21 703.908 47.21H715.598V44.97C715.598 41.7967 714.711 39.3933 712.938 37.76C711.164 36.08 708.574 35.24 705.168 35.24C702.834 35.24 700.594 35.6367 698.448 36.43C696.301 37.1767 694.458 38.2267 692.918 39.58L690.678 35.87C692.544 34.2833 694.784 33.07 697.398 32.23C700.011 31.3433 702.764 30.9 705.658 30.9ZM703.908 64.43C706.708 64.43 709.111 63.8 711.118 62.54C713.124 61.2333 714.618 59.3667 715.598 56.94V50.92H704.048C697.748 50.92 694.598 53.1133 694.598 57.5C694.598 59.6467 695.414 61.35 697.048 62.61C698.681 63.8233 700.968 64.43 703.908 64.43ZM764.447 31.18V68H759.687V61.28C758.38 63.52 756.583 65.27 754.297 66.53C752.01 67.7433 749.397 68.35 746.457 68.35C741.65 68.35 737.847 67.02 735.047 64.36C732.293 61.6533 730.917 57.71 730.917 52.53V31.18H735.887V52.04C735.887 55.9133 736.843 58.8533 738.757 60.86C740.67 62.8667 743.4 63.87 746.947 63.87C750.82 63.87 753.877 62.7033 756.117 60.37C758.357 57.99 759.477 54.7 759.477 50.5V31.18H764.447ZM790.826 68.35C787.186 68.35 783.92 67.5567 781.026 65.97C778.18 64.3833 775.94 62.1667 774.306 59.32C772.673 56.4267 771.856 53.1833 771.856 49.59C771.856 45.9967 772.673 42.7767 774.306 39.93C775.94 37.0833 778.18 34.8667 781.026 33.28C783.92 31.6933 787.186 30.9 790.826 30.9C794 30.9 796.823 31.53 799.296 32.79C801.816 34.0033 803.8 35.8 805.246 38.18L801.536 40.7C800.323 38.88 798.783 37.5267 796.916 36.64C795.05 35.7067 793.02 35.24 790.826 35.24C788.166 35.24 785.763 35.8467 783.616 37.06C781.516 38.2267 779.86 39.9067 778.646 42.1C777.48 44.2933 776.896 46.79 776.896 49.59C776.896 52.4367 777.48 54.9567 778.646 57.15C779.86 59.2967 781.516 60.9767 783.616 62.19C785.763 63.3567 788.166 63.94 790.826 63.94C793.02 63.94 795.05 63.4967 796.916 62.61C798.783 61.7233 800.323 60.37 801.536 58.55L805.246 61.07C803.8 63.45 801.816 65.27 799.296 66.53C796.776 67.7433 793.953 68.35 790.826 68.35ZM843.654 51.13H812.854C813.134 54.9567 814.604 58.06 817.264 60.44C819.924 62.7733 823.284 63.94 827.344 63.94C829.631 63.94 831.731 63.5433 833.644 62.75C835.558 61.91 837.214 60.6967 838.614 59.11L841.414 62.33C839.781 64.29 837.728 65.7833 835.254 66.81C832.828 67.8367 830.144 68.35 827.204 68.35C823.424 68.35 820.064 67.5567 817.124 65.97C814.231 64.3367 811.968 62.0967 810.334 59.25C808.701 56.4033 807.884 53.1833 807.884 49.59C807.884 45.9967 808.654 42.7767 810.194 39.93C811.781 37.0833 813.928 34.8667 816.634 33.28C819.388 31.6933 822.468 30.9 825.874 30.9C829.281 30.9 832.338 31.6933 835.044 33.28C837.751 34.8667 839.874 37.0833 841.414 39.93C842.954 42.73 843.724 45.95 843.724 49.59L843.654 51.13ZM825.874 35.17C822.328 35.17 819.341 36.3133 816.914 38.6C814.534 40.84 813.181 43.78 812.854 47.42H838.964C838.638 43.78 837.261 40.84 834.834 38.6C832.454 36.3133 829.468 35.17 825.874 35.17Z" fill="#FE6C3E"/>
<path d="M395.7 60L387.35 49L378.95 60H374.95L385.35 46.5L375.45 33.7H379.45L387.35 44L395.25 33.7H399.15L389.25 46.5L399.75 60H395.7Z" fill="white"/>
<path d="M261.93 203.26C256.71 203.26 251.76 202.63 247.08 201.37C242.4 200.11 238.59 198.49 235.65 196.51L242.67 183.19C245.85 185.23 249.24 186.79 252.84 187.87C256.44 188.89 260.04 189.4 263.64 189.4C267.06 189.4 269.7 188.92 271.56 187.96C273.48 186.94 274.44 185.56 274.44 183.82C274.44 182.32 273.57 181.15 271.83 180.31C270.15 179.47 267.51 178.57 263.91 177.61C259.83 176.53 256.44 175.45 253.74 174.37C251.04 173.23 248.7 171.52 246.72 169.24C244.8 166.96 243.84 163.96 243.84 160.24C243.84 155.74 245.07 151.81 247.53 148.45C249.99 145.03 253.5 142.39 258.06 140.53C262.62 138.67 267.96 137.74 274.08 137.74C278.58 137.74 282.78 138.22 286.68 139.18C290.58 140.08 293.94 141.4 296.76 143.14L290.28 156.37C287.82 154.81 285.09 153.64 282.09 152.86C279.15 152.02 276.12 151.6 273 151.6C269.46 151.6 266.67 152.17 264.63 153.31C262.65 154.45 261.66 155.92 261.66 157.72C261.66 159.28 262.53 160.48 264.27 161.32C266.01 162.16 268.71 163.06 272.37 164.02C276.45 165.04 279.81 166.09 282.45 167.17C285.15 168.25 287.46 169.9 289.38 172.12C291.3 174.34 292.26 177.25 292.26 180.85C292.26 185.29 291 189.22 288.48 192.64C286.02 196 282.48 198.61 277.86 200.47C273.3 202.33 267.99 203.26 261.93 203.26ZM332.351 139C340.511 139 346.811 140.77 351.251 144.31C355.691 147.85 357.911 152.83 357.911 159.25C357.911 164.53 356.621 169.15 354.041 173.11C351.521 177.07 347.891 180.13 343.151 182.29C338.471 184.45 333.011 185.53 326.771 185.53H314.171L310.931 202H293.111L305.711 139H332.351ZM327.581 171.49C331.541 171.49 334.571 170.56 336.671 168.7C338.831 166.84 339.911 164.2 339.911 160.78C339.911 158.2 339.041 156.28 337.301 155.02C335.621 153.7 333.191 153.04 330.011 153.04H320.651L316.961 171.49H327.581ZM419.88 159.07C419.88 164.83 418.35 169.81 415.29 174.01C412.23 178.15 407.94 181.18 402.42 183.1L413.13 202H394.5L385.14 185.26H376.14L372.81 202H354.99L367.59 139H394.5C402.54 139 408.78 140.77 413.22 144.31C417.66 147.85 419.88 152.77 419.88 159.07ZM401.88 160.78C401.88 158.2 401.01 156.28 399.27 155.02C397.53 153.7 395.1 153.04 391.98 153.04H382.62L378.84 171.49H389.46C393.42 171.49 396.48 170.56 398.64 168.7C400.8 166.84 401.88 164.2 401.88 160.78ZM430.611 139H448.431L435.831 202H418.011L430.611 139ZM517.359 139L504.759 202H490.089L469.299 167.44L462.369 202H444.909L457.509 139H472.179L493.059 173.47L499.899 139H517.359ZM536.949 153.13H517.599L520.479 139H576.909L574.029 153.13H554.769L544.959 202H527.139L536.949 153.13Z" fill="white"/>
</svg>
