<svg width="1634" height="120" viewBox="0 0 1634 120" fill="none" xmlns="http://www.w3.org/2000/svg">
<path d="M25.9 47.9C29.3533 47.9 32.48 48.6933 35.28 50.28C38.08 51.82 40.2733 54.0133 41.86 56.86C43.4467 59.7067 44.24 62.95 44.24 66.59C44.24 70.23 43.4467 73.4733 41.86 76.32C40.2733 79.1667 38.08 81.3833 35.28 82.97C32.48 84.5567 29.3533 85.35 25.9 85.35C22.82 85.35 20.0433 84.6967 17.57 83.39C15.1433 82.0833 13.1833 80.1933 11.69 77.72V85H6.93V33.06H11.9V55.18C13.44 52.8 15.4 51.0033 17.78 49.79C20.2067 48.53 22.9133 47.9 25.9 47.9ZM25.55 80.94C28.1167 80.94 30.45 80.3567 32.55 79.19C34.65 77.9767 36.2833 76.2733 37.45 74.08C38.6633 71.8867 39.27 69.39 39.27 66.59C39.27 63.79 38.6633 61.2933 37.45 59.1C36.2833 56.9067 34.65 55.2267 32.55 54.06C30.45 52.8467 28.1167 52.24 25.55 52.24C22.9367 52.24 20.58 52.8467 18.48 54.06C16.4267 55.2267 14.7933 56.9067 13.58 59.1C12.4133 61.2933 11.83 63.79 11.83 66.59C11.83 69.39 12.4133 71.8867 13.58 74.08C14.7933 76.2733 16.4267 77.9767 18.48 79.19C20.58 80.3567 22.9367 80.94 25.55 80.94ZM51.5714 33.06H56.5414V85H51.5714V33.06ZM100.75 48.18V85H95.9902V78.28C94.6836 80.52 92.8869 82.27 90.6002 83.53C88.3136 84.7433 85.7002 85.35 82.7602 85.35C77.9536 85.35 74.1502 84.02 71.3502 81.36C68.5969 78.6533 67.2202 74.71 67.2202 69.53V48.18H72.1902V69.04C72.1902 72.9133 73.1469 75.8533 75.0602 77.86C76.9736 79.8667 79.7036 80.87 83.2502 80.87C87.1236 80.87 90.1802 79.7033 92.4202 77.37C94.6602 74.99 95.7802 71.7 95.7802 67.5V48.18H100.75ZM143.93 68.13H113.13C113.41 71.9567 114.88 75.06 117.54 77.44C120.2 79.7733 123.56 80.94 127.62 80.94C129.907 80.94 132.007 80.5433 133.92 79.75C135.833 78.91 137.49 77.6967 138.89 76.11L141.69 79.33C140.057 81.29 138.003 82.7833 135.53 83.81C133.103 84.8367 130.42 85.35 127.48 85.35C123.7 85.35 120.34 84.5567 117.4 82.97C114.507 81.3367 112.243 79.0967 110.61 76.25C108.977 73.4033 108.16 70.1833 108.16 66.59C108.16 62.9967 108.93 59.7767 110.47 56.93C112.057 54.0833 114.203 51.8667 116.91 50.28C119.663 48.6933 122.743 47.9 126.15 47.9C129.557 47.9 132.613 48.6933 135.32 50.28C138.027 51.8667 140.15 54.0833 141.69 56.93C143.23 59.73 144 62.95 144 66.59L143.93 68.13ZM126.15 52.17C122.603 52.17 119.617 53.3133 117.19 55.6C114.81 57.84 113.457 60.78 113.13 64.42H139.24C138.913 60.78 137.537 57.84 135.11 55.6C132.73 53.3133 129.743 52.17 126.15 52.17Z" fill="#3D5AFE"/>
<path d="M486.9 47.9C490.353 47.9 493.48 48.6933 496.28 50.28C499.08 51.82 501.273 54.0133 502.86 56.86C504.447 59.7067 505.24 62.95 505.24 66.59C505.24 70.23 504.447 73.4733 502.86 76.32C501.273 79.1667 499.08 81.3833 496.28 82.97C493.48 84.5567 490.353 85.35 486.9 85.35C483.82 85.35 481.043 84.6967 478.57 83.39C476.143 82.0833 474.183 80.1933 472.69 77.72V85H467.93V33.06H472.9V55.18C474.44 52.8 476.4 51.0033 478.78 49.79C481.207 48.53 483.913 47.9 486.9 47.9ZM486.55 80.94C489.117 80.94 491.45 80.3567 493.55 79.19C495.65 77.9767 497.283 76.2733 498.45 74.08C499.663 71.8867 500.27 69.39 500.27 66.59C500.27 63.79 499.663 61.2933 498.45 59.1C497.283 56.9067 495.65 55.2267 493.55 54.06C491.45 52.8467 489.117 52.24 486.55 52.24C483.937 52.24 481.58 52.8467 479.48 54.06C477.427 55.2267 475.793 56.9067 474.58 59.1C473.413 61.2933 472.83 63.79 472.83 66.59C472.83 69.39 473.413 71.8867 474.58 74.08C475.793 76.2733 477.427 77.9767 479.48 79.19C481.58 80.3567 483.937 80.94 486.55 80.94ZM512.571 33.06H517.541V85H512.571V33.06ZM561.75 48.18V85H556.99V78.28C555.684 80.52 553.887 82.27 551.6 83.53C549.314 84.7433 546.7 85.35 543.76 85.35C538.954 85.35 535.15 84.02 532.35 81.36C529.597 78.6533 528.22 74.71 528.22 69.53V48.18H533.19V69.04C533.19 72.9133 534.147 75.8533 536.06 77.86C537.974 79.8667 540.704 80.87 544.25 80.87C548.124 80.87 551.18 79.7033 553.42 77.37C555.66 74.99 556.78 71.7 556.78 67.5V48.18H561.75ZM604.93 68.13H574.13C574.41 71.9567 575.88 75.06 578.54 77.44C581.2 79.7733 584.56 80.94 588.62 80.94C590.907 80.94 593.007 80.5433 594.92 79.75C596.833 78.91 598.49 77.6967 599.89 76.11L602.69 79.33C601.057 81.29 599.003 82.7833 596.53 83.81C594.103 84.8367 591.42 85.35 588.48 85.35C584.7 85.35 581.34 84.5567 578.4 82.97C575.507 81.3367 573.243 79.0967 571.61 76.25C569.977 73.4033 569.16 70.1833 569.16 66.59C569.16 62.9967 569.93 59.7767 571.47 56.93C573.057 54.0833 575.203 51.8667 577.91 50.28C580.663 48.6933 583.743 47.9 587.15 47.9C590.557 47.9 593.613 48.6933 596.32 50.28C599.027 51.8667 601.15 54.0833 602.69 56.93C604.23 59.73 605 62.95 605 66.59L604.93 68.13ZM587.15 52.17C583.603 52.17 580.617 53.3133 578.19 55.6C575.81 57.84 574.457 60.78 574.13 64.42H600.24C599.913 60.78 598.537 57.84 596.11 55.6C593.73 53.3133 590.743 52.17 587.15 52.17Z" fill="#3D5AFE"/>
<path d="M154.93 33.06H159.9V85H154.93V33.06ZM202.989 68.13H172.189C172.469 71.9567 173.939 75.06 176.599 77.44C179.259 79.7733 182.619 80.94 186.679 80.94C188.965 80.94 191.065 80.5433 192.979 79.75C194.892 78.91 196.549 77.6967 197.949 76.11L200.749 79.33C199.115 81.29 197.062 82.7833 194.589 83.81C192.162 84.8367 189.479 85.35 186.539 85.35C182.759 85.35 179.399 84.5567 176.459 82.97C173.565 81.3367 171.302 79.0967 169.669 76.25C168.035 73.4033 167.219 70.1833 167.219 66.59C167.219 62.9967 167.989 59.7767 169.529 56.93C171.115 54.0833 173.262 51.8667 175.969 50.28C178.722 48.6933 181.802 47.9 185.209 47.9C188.615 47.9 191.672 48.6933 194.379 50.28C197.085 51.8667 199.209 54.0833 200.749 56.93C202.289 59.73 203.059 62.95 203.059 66.59L202.989 68.13ZM185.209 52.17C181.662 52.17 178.675 53.3133 176.249 55.6C173.869 57.84 172.515 60.78 172.189 64.42H198.299C197.972 60.78 196.595 57.84 194.169 55.6C191.789 53.3133 188.802 52.17 185.209 52.17ZM222.23 47.9C227.036 47.9 230.723 49.1133 233.29 51.54C235.856 53.92 237.14 57.4667 237.14 62.18V85H232.38V79.26C231.26 81.1733 229.603 82.6667 227.41 83.74C225.263 84.8133 222.696 85.35 219.71 85.35C215.603 85.35 212.336 84.37 209.91 82.41C207.483 80.45 206.27 77.86 206.27 74.64C206.27 71.5133 207.39 68.9933 209.63 67.08C211.916 65.1667 215.533 64.21 220.48 64.21H232.17V61.97C232.17 58.7967 231.283 56.3933 229.51 54.76C227.736 53.08 225.146 52.24 221.74 52.24C219.406 52.24 217.166 52.6367 215.02 53.43C212.873 54.1767 211.03 55.2267 209.49 56.58L207.25 52.87C209.116 51.2833 211.356 50.07 213.97 49.23C216.583 48.3433 219.336 47.9 222.23 47.9ZM220.48 81.43C223.28 81.43 225.683 80.8 227.69 79.54C229.696 78.2333 231.19 76.3667 232.17 73.94V67.92H220.62C214.32 67.92 211.17 70.1133 211.17 74.5C211.17 76.6467 211.986 78.35 213.62 79.61C215.253 80.8233 217.54 81.43 220.48 81.43ZM252.599 55.39C253.765 52.9167 255.492 51.05 257.779 49.79C260.112 48.53 262.982 47.9 266.389 47.9V52.73L265.199 52.66C261.325 52.66 258.292 53.85 256.099 56.23C253.905 58.61 252.809 61.9467 252.809 66.24V85H247.839V48.18H252.599V55.39ZM291.347 47.9C295.967 47.9 299.631 49.2533 302.337 51.96C305.091 54.62 306.467 58.5167 306.467 63.65V85H301.497V64.14C301.497 60.3133 300.541 57.3967 298.627 55.39C296.714 53.3833 293.984 52.38 290.437 52.38C286.471 52.38 283.321 53.57 280.987 55.95C278.701 58.2833 277.557 61.5267 277.557 65.68V85H272.587V48.18H277.347V54.97C278.701 52.73 280.567 51.0033 282.947 49.79C285.374 48.53 288.174 47.9 291.347 47.9Z" fill="white"/>
<path d="M624.8 85.35C621.813 85.35 618.943 84.93 616.19 84.09C613.483 83.2033 611.36 82.1067 609.82 80.8L612.06 76.88C613.6 78.0933 615.537 79.0967 617.87 79.89C620.203 80.6367 622.63 81.01 625.15 81.01C628.51 81.01 630.983 80.4967 632.57 79.47C634.203 78.3967 635.02 76.9033 635.02 74.99C635.02 73.6367 634.577 72.5867 633.69 71.84C632.803 71.0467 631.683 70.4633 630.33 70.09C628.977 69.67 627.18 69.2733 624.94 68.9C621.953 68.34 619.55 67.78 617.73 67.22C615.91 66.6133 614.347 65.61 613.04 64.21C611.78 62.81 611.15 60.8733 611.15 58.4C611.15 55.32 612.433 52.8 615 50.84C617.567 48.88 621.137 47.9 625.71 47.9C628.09 47.9 630.47 48.2267 632.85 48.88C635.23 49.4867 637.19 50.3033 638.73 51.33L636.56 55.32C633.527 53.22 629.91 52.17 625.71 52.17C622.537 52.17 620.133 52.73 618.5 53.85C616.913 54.97 616.12 56.44 616.12 58.26C616.12 59.66 616.563 60.78 617.45 61.62C618.383 62.46 619.527 63.09 620.88 63.51C622.233 63.8833 624.1 64.28 626.48 64.7C629.42 65.26 631.777 65.82 633.55 66.38C635.323 66.94 636.84 67.8967 638.1 69.25C639.36 70.6033 639.99 72.47 639.99 74.85C639.99 78.07 638.637 80.6367 635.93 82.55C633.27 84.4167 629.56 85.35 624.8 85.35ZM665.348 47.9C668.801 47.9 671.928 48.6933 674.728 50.28C677.528 51.82 679.721 54.0133 681.308 56.86C682.895 59.7067 683.688 62.95 683.688 66.59C683.688 70.2767 682.895 73.5433 681.308 76.39C679.721 79.2367 677.528 81.4533 674.728 83.04C671.975 84.58 668.848 85.35 665.348 85.35C662.361 85.35 659.655 84.7433 657.228 83.53C654.848 82.27 652.888 80.45 651.348 78.07V98.58H646.378V48.18H651.138V55.46C652.631 53.0333 654.591 51.1667 657.018 49.86C659.491 48.5533 662.268 47.9 665.348 47.9ZM664.998 80.94C667.565 80.94 669.898 80.3567 671.998 79.19C674.098 77.9767 675.731 76.2733 676.898 74.08C678.111 71.8867 678.718 69.39 678.718 66.59C678.718 63.79 678.111 61.3167 676.898 59.17C675.731 56.9767 674.098 55.2733 671.998 54.06C669.898 52.8467 667.565 52.24 664.998 52.24C662.385 52.24 660.028 52.8467 657.928 54.06C655.875 55.2733 654.241 56.9767 653.028 59.17C651.861 61.3167 651.278 63.79 651.278 66.59C651.278 69.39 651.861 71.8867 653.028 74.08C654.241 76.2733 655.875 77.9767 657.928 79.19C660.028 80.3567 662.385 80.94 664.998 80.94ZM695.779 55.39C696.946 52.9167 698.673 51.05 700.959 49.79C703.293 48.53 706.163 47.9 709.569 47.9V52.73L708.379 52.66C704.506 52.66 701.473 53.85 699.279 56.23C697.086 58.61 695.989 61.9467 695.989 66.24V85H691.019V48.18H695.779V55.39ZM715.768 48.18H720.738V85H715.768V48.18ZM718.288 40.13C717.262 40.13 716.398 39.78 715.698 39.08C714.998 38.38 714.648 37.54 714.648 36.56C714.648 35.6267 714.998 34.81 715.698 34.11C716.398 33.41 717.262 33.06 718.288 33.06C719.315 33.06 720.178 33.41 720.878 34.11C721.578 34.7633 721.928 35.5567 721.928 36.49C721.928 37.5167 721.578 38.38 720.878 39.08C720.178 39.78 719.315 40.13 718.288 40.13ZM750.527 47.9C755.147 47.9 758.81 49.2533 761.517 51.96C764.27 54.62 765.647 58.5167 765.647 63.65V85H760.677V64.14C760.677 60.3133 759.72 57.3967 757.807 55.39C755.894 53.3833 753.164 52.38 749.617 52.38C745.65 52.38 742.5 53.57 740.167 55.95C737.88 58.2833 736.737 61.5267 736.737 65.68V85H731.767V48.18H736.527V54.97C737.88 52.73 739.747 51.0033 742.127 49.79C744.554 48.53 747.354 47.9 750.527 47.9ZM795.73 82.76C794.797 83.6 793.63 84.2533 792.23 84.72C790.877 85.14 789.453 85.35 787.96 85.35C784.507 85.35 781.847 84.4167 779.98 82.55C778.113 80.6833 777.18 78.0467 777.18 74.64V52.38H770.6V48.18H777.18V40.13H782.15V48.18H793.35V52.38H782.15V74.36C782.15 76.5533 782.687 78.2333 783.76 79.4C784.88 80.52 786.467 81.08 788.52 81.08C789.547 81.08 790.527 80.9167 791.46 80.59C792.44 80.2633 793.28 79.7967 793.98 79.19L795.73 82.76Z" fill="white"/>
<rect x="858" width="5" height="120" fill="white" fill-opacity="0.8"/>
<path d="M945.56 39C950.92 39 955.12 40.28 958.16 42.84C961.2 45.4 962.72 48.92 962.72 53.4C962.72 57.88 961.2 61.4 958.16 63.96C955.12 66.48 950.92 67.74 945.56 67.74H934.28V81H929.84V39H945.56ZM945.44 63.84C949.6 63.84 952.78 62.94 954.98 61.14C957.18 59.3 958.28 56.72 958.28 53.4C958.28 50 957.18 47.4 954.98 45.6C952.78 43.76 949.6 42.84 945.44 42.84H934.28V63.84H945.44ZM972.28 55.62C973.28 53.5 974.76 51.9 976.72 50.82C978.72 49.74 981.18 49.2 984.1 49.2V53.34L983.08 53.28C979.76 53.28 977.16 54.3 975.28 56.34C973.4 58.38 972.46 61.24 972.46 64.92V81H968.2V49.44H972.28V55.62ZM1016.6 66.54H990.2C990.44 69.82 991.7 72.48 993.98 74.52C996.26 76.52 999.14 77.52 1002.62 77.52C1004.58 77.52 1006.38 77.18 1008.02 76.5C1009.66 75.78 1011.08 74.74 1012.28 73.38L1014.68 76.14C1013.28 77.82 1011.52 79.1 1009.4 79.98C1007.32 80.86 1005.02 81.3 1002.5 81.3C999.26 81.3 996.38 80.62 993.86 79.26C991.38 77.86 989.44 75.94 988.04 73.5C986.64 71.06 985.94 68.3 985.94 65.22C985.94 62.14 986.6 59.38 987.92 56.94C989.28 54.5 991.12 52.6 993.44 51.24C995.8 49.88 998.44 49.2 1001.36 49.2C1004.28 49.2 1006.9 49.88 1009.22 51.24C1011.54 52.6 1013.36 54.5 1014.68 56.94C1016 59.34 1016.66 62.1 1016.66 65.22L1016.6 66.54ZM1001.36 52.86C998.32 52.86 995.76 53.84 993.68 55.8C991.64 57.72 990.48 60.24 990.2 63.36H1012.58C1012.3 60.24 1011.12 57.72 1009.04 55.8C1007 53.84 1004.44 52.86 1001.36 52.86ZM1031.39 81.3C1028.83 81.3 1026.37 80.94 1024.01 80.22C1021.69 79.46 1019.87 78.52 1018.55 77.4L1020.47 74.04C1021.79 75.08 1023.45 75.94 1025.45 76.62C1027.45 77.26 1029.53 77.58 1031.69 77.58C1034.57 77.58 1036.69 77.14 1038.05 76.26C1039.45 75.34 1040.15 74.06 1040.15 72.42C1040.15 71.26 1039.77 70.36 1039.01 69.72C1038.25 69.04 1037.29 68.54 1036.13 68.22C1034.97 67.86 1033.43 67.52 1031.51 67.2C1028.95 66.72 1026.89 66.24 1025.33 65.76C1023.77 65.24 1022.43 64.38 1021.31 63.18C1020.23 61.98 1019.69 60.32 1019.69 58.2C1019.69 55.56 1020.79 53.4 1022.99 51.72C1025.19 50.04 1028.25 49.2 1032.17 49.2C1034.21 49.2 1036.25 49.48 1038.29 50.04C1040.33 50.56 1042.01 51.26 1043.33 52.14L1041.47 55.56C1038.87 53.76 1035.77 52.86 1032.17 52.86C1029.45 52.86 1027.39 53.34 1025.99 54.3C1024.63 55.26 1023.95 56.52 1023.95 58.08C1023.95 59.28 1024.33 60.24 1025.09 60.96C1025.89 61.68 1026.87 62.22 1028.03 62.58C1029.19 62.9 1030.79 63.24 1032.83 63.6C1035.35 64.08 1037.37 64.56 1038.89 65.04C1040.41 65.52 1041.71 66.34 1042.79 67.5C1043.87 68.66 1044.41 70.26 1044.41 72.3C1044.41 75.06 1043.25 77.26 1040.93 78.9C1038.65 80.5 1035.47 81.3 1031.39 81.3ZM1077.37 66.54H1050.97C1051.21 69.82 1052.47 72.48 1054.75 74.52C1057.03 76.52 1059.91 77.52 1063.39 77.52C1065.35 77.52 1067.15 77.18 1068.79 76.5C1070.43 75.78 1071.85 74.74 1073.05 73.38L1075.45 76.14C1074.05 77.82 1072.29 79.1 1070.17 79.98C1068.09 80.86 1065.79 81.3 1063.27 81.3C1060.03 81.3 1057.15 80.62 1054.63 79.26C1052.15 77.86 1050.21 75.94 1048.81 73.5C1047.41 71.06 1046.71 68.3 1046.71 65.22C1046.71 62.14 1047.37 59.38 1048.69 56.94C1050.05 54.5 1051.89 52.6 1054.21 51.24C1056.57 49.88 1059.21 49.2 1062.13 49.2C1065.05 49.2 1067.67 49.88 1069.99 51.24C1072.31 52.6 1074.13 54.5 1075.45 56.94C1076.77 59.34 1077.43 62.1 1077.43 65.22L1077.37 66.54ZM1062.13 52.86C1059.09 52.86 1056.53 53.84 1054.45 55.8C1052.41 57.72 1051.25 60.24 1050.97 63.36H1073.35C1073.07 60.24 1071.89 57.72 1069.81 55.8C1067.77 53.84 1065.21 52.86 1062.13 52.86ZM1099.78 49.2C1103.74 49.2 1106.88 50.36 1109.2 52.68C1111.56 54.96 1112.74 58.3 1112.74 62.7V81H1108.48V63.12C1108.48 59.84 1107.66 57.34 1106.02 55.62C1104.38 53.9 1102.04 53.04 1099 53.04C1095.6 53.04 1092.9 54.06 1090.9 56.1C1088.94 58.1 1087.96 60.88 1087.96 64.44V81H1083.7V49.44H1087.78V55.26C1088.94 53.34 1090.54 51.86 1092.58 50.82C1094.66 49.74 1097.06 49.2 1099.78 49.2ZM1138.52 79.08C1137.72 79.8 1136.72 80.36 1135.52 80.76C1134.36 81.12 1133.14 81.3 1131.86 81.3C1128.9 81.3 1126.62 80.5 1125.02 78.9C1123.42 77.3 1122.62 75.04 1122.62 72.12V53.04H1116.98V49.44H1122.62V42.54H1126.88V49.44H1136.48V53.04H1126.88V71.88C1126.88 73.76 1127.34 75.2 1128.26 76.2C1129.22 77.16 1130.58 77.64 1132.34 77.64C1133.22 77.64 1134.06 77.5 1134.86 77.22C1135.7 76.94 1136.42 76.54 1137.02 76.02L1138.52 79.08ZM1170.24 66.54H1143.84C1144.08 69.82 1145.34 72.48 1147.62 74.52C1149.9 76.52 1152.78 77.52 1156.26 77.52C1158.22 77.52 1160.02 77.18 1161.66 76.5C1163.3 75.78 1164.72 74.74 1165.92 73.38L1168.32 76.14C1166.92 77.82 1165.16 79.1 1163.04 79.98C1160.96 80.86 1158.66 81.3 1156.14 81.3C1152.9 81.3 1150.02 80.62 1147.5 79.26C1145.02 77.86 1143.08 75.94 1141.68 73.5C1140.28 71.06 1139.58 68.3 1139.58 65.22C1139.58 62.14 1140.24 59.38 1141.56 56.94C1142.92 54.5 1144.76 52.6 1147.08 51.24C1149.44 49.88 1152.08 49.2 1155 49.2C1157.92 49.2 1160.54 49.88 1162.86 51.24C1165.18 52.6 1167 54.5 1168.32 56.94C1169.64 59.34 1170.3 62.1 1170.3 65.22L1170.24 66.54ZM1155 52.86C1151.96 52.86 1149.4 53.84 1147.32 55.8C1145.28 57.72 1144.12 60.24 1143.84 63.36H1166.22C1165.94 60.24 1164.76 57.72 1162.68 55.8C1160.64 53.84 1158.08 52.86 1155 52.86ZM1205.38 36.48V81H1201.3V74.76C1200.02 76.88 1198.32 78.5 1196.2 79.62C1194.12 80.74 1191.76 81.3 1189.12 81.3C1186.16 81.3 1183.48 80.62 1181.08 79.26C1178.68 77.9 1176.8 76 1175.44 73.56C1174.08 71.12 1173.4 68.34 1173.4 65.22C1173.4 62.1 1174.08 59.32 1175.44 56.88C1176.8 54.44 1178.68 52.56 1181.08 51.24C1183.48 49.88 1186.16 49.2 1189.12 49.2C1191.68 49.2 1193.98 49.74 1196.02 50.82C1198.1 51.86 1199.8 53.4 1201.12 55.44V36.48H1205.38ZM1189.48 77.52C1191.68 77.52 1193.66 77.02 1195.42 76.02C1197.22 74.98 1198.62 73.52 1199.62 71.64C1200.66 69.76 1201.18 67.62 1201.18 65.22C1201.18 62.82 1200.66 60.68 1199.62 58.8C1198.62 56.92 1197.22 55.48 1195.42 54.48C1193.66 53.44 1191.68 52.92 1189.48 52.92C1187.24 52.92 1185.22 53.44 1183.42 54.48C1181.66 55.48 1180.26 56.92 1179.22 58.8C1178.22 60.68 1177.72 62.82 1177.72 65.22C1177.72 67.62 1178.22 69.76 1179.22 71.64C1180.26 73.52 1181.66 74.98 1183.42 76.02C1185.22 77.02 1187.24 77.52 1189.48 77.52ZM1244.4 49.2C1247.36 49.2 1250.04 49.88 1252.44 51.24C1254.84 52.56 1256.72 54.44 1258.08 56.88C1259.44 59.32 1260.12 62.1 1260.12 65.22C1260.12 68.34 1259.44 71.12 1258.08 73.56C1256.72 76 1254.84 77.9 1252.44 79.26C1250.04 80.62 1247.36 81.3 1244.4 81.3C1241.76 81.3 1239.38 80.74 1237.26 79.62C1235.18 78.5 1233.5 76.88 1232.22 74.76V81H1228.14V36.48H1232.4V55.44C1233.72 53.4 1235.4 51.86 1237.44 50.82C1239.52 49.74 1241.84 49.2 1244.4 49.2ZM1244.1 77.52C1246.3 77.52 1248.3 77.02 1250.1 76.02C1251.9 74.98 1253.3 73.52 1254.3 71.64C1255.34 69.76 1255.86 67.62 1255.86 65.22C1255.86 62.82 1255.34 60.68 1254.3 58.8C1253.3 56.92 1251.9 55.48 1250.1 54.48C1248.3 53.44 1246.3 52.92 1244.1 52.92C1241.86 52.92 1239.84 53.44 1238.04 54.48C1236.28 55.48 1234.88 56.92 1233.84 58.8C1232.84 60.68 1232.34 62.82 1232.34 65.22C1232.34 67.62 1232.84 69.76 1233.84 71.64C1234.88 73.52 1236.28 74.98 1238.04 76.02C1239.84 77.02 1241.86 77.52 1244.1 77.52ZM1292.05 49.44L1276.27 84.78C1274.99 87.74 1273.51 89.84 1271.83 91.08C1270.15 92.32 1268.13 92.94 1265.77 92.94C1264.25 92.94 1262.83 92.7 1261.51 92.22C1260.19 91.74 1259.05 91.02 1258.09 90.06L1260.07 86.88C1261.67 88.48 1263.59 89.28 1265.83 89.28C1267.27 89.28 1268.49 88.88 1269.49 88.08C1270.53 87.28 1271.49 85.92 1272.37 84L1273.75 80.94L1259.65 49.44H1264.09L1275.97 76.26L1287.85 49.44H1292.05ZM1328.21 81.36C1324.05 81.36 1320.27 80.44 1316.87 78.6C1313.51 76.72 1310.87 74.16 1308.95 70.92C1307.07 67.68 1306.13 64.04 1306.13 60C1306.13 55.96 1307.07 52.32 1308.95 49.08C1310.87 45.84 1313.51 43.3 1316.87 41.46C1320.27 39.58 1324.05 38.64 1328.21 38.64C1332.37 38.64 1336.11 39.56 1339.43 41.4C1342.79 43.24 1345.43 45.8 1347.35 49.08C1349.27 52.32 1350.23 55.96 1350.23 60C1350.23 64.04 1349.27 67.7 1347.35 70.98C1345.43 74.22 1342.79 76.76 1339.43 78.6C1336.11 80.44 1332.37 81.36 1328.21 81.36ZM1328.21 77.4C1331.53 77.4 1334.53 76.66 1337.21 75.18C1339.89 73.66 1341.99 71.58 1343.51 68.94C1345.03 66.26 1345.79 63.28 1345.79 60C1345.79 56.72 1345.03 53.76 1343.51 51.12C1341.99 48.44 1339.89 46.36 1337.21 44.88C1334.53 43.36 1331.53 42.6 1328.21 42.6C1324.89 42.6 1321.87 43.36 1319.15 44.88C1316.47 46.36 1314.35 48.44 1312.79 51.12C1311.27 53.76 1310.51 56.72 1310.51 60C1310.51 63.28 1311.27 66.26 1312.79 68.94C1314.35 71.58 1316.47 73.66 1319.15 75.18C1321.87 76.66 1324.89 77.4 1328.21 77.4ZM1373.14 49.2C1376.1 49.2 1378.78 49.88 1381.18 51.24C1383.58 52.56 1385.46 54.44 1386.82 56.88C1388.18 59.32 1388.86 62.1 1388.86 65.22C1388.86 68.38 1388.18 71.18 1386.82 73.62C1385.46 76.06 1383.58 77.96 1381.18 79.32C1378.82 80.64 1376.14 81.3 1373.14 81.3C1370.58 81.3 1368.26 80.78 1366.18 79.74C1364.14 78.66 1362.46 77.1 1361.14 75.06V92.64H1356.88V49.44H1360.96V55.68C1362.24 53.6 1363.92 52 1366 50.88C1368.12 49.76 1370.5 49.2 1373.14 49.2ZM1372.84 77.52C1375.04 77.52 1377.04 77.02 1378.84 76.02C1380.64 74.98 1382.04 73.52 1383.04 71.64C1384.08 69.76 1384.6 67.62 1384.6 65.22C1384.6 62.82 1384.08 60.7 1383.04 58.86C1382.04 56.98 1380.64 55.52 1378.84 54.48C1377.04 53.44 1375.04 52.92 1372.84 52.92C1370.6 52.92 1368.58 53.44 1366.78 54.48C1365.02 55.52 1363.62 56.98 1362.58 58.86C1361.58 60.7 1361.08 62.82 1361.08 65.22C1361.08 67.62 1361.58 69.76 1362.58 71.64C1363.62 73.52 1365.02 74.98 1366.78 76.02C1368.58 77.02 1370.6 77.52 1372.84 77.52ZM1422.63 66.54H1396.23C1396.47 69.82 1397.73 72.48 1400.01 74.52C1402.29 76.52 1405.17 77.52 1408.65 77.52C1410.61 77.52 1412.41 77.18 1414.05 76.5C1415.69 75.78 1417.11 74.74 1418.31 73.38L1420.71 76.14C1419.31 77.82 1417.55 79.1 1415.43 79.98C1413.35 80.86 1411.05 81.3 1408.53 81.3C1405.29 81.3 1402.41 80.62 1399.89 79.26C1397.41 77.86 1395.47 75.94 1394.07 73.5C1392.67 71.06 1391.97 68.3 1391.97 65.22C1391.97 62.14 1392.63 59.38 1393.95 56.94C1395.31 54.5 1397.15 52.6 1399.47 51.24C1401.83 49.88 1404.47 49.2 1407.39 49.2C1410.31 49.2 1412.93 49.88 1415.25 51.24C1417.57 52.6 1419.39 54.5 1420.71 56.94C1422.03 59.34 1422.69 62.1 1422.69 65.22L1422.63 66.54ZM1407.39 52.86C1404.35 52.86 1401.79 53.84 1399.71 55.8C1397.67 57.72 1396.51 60.24 1396.23 63.36H1418.61C1418.33 60.24 1417.15 57.72 1415.07 55.8C1413.03 53.84 1410.47 52.86 1407.39 52.86ZM1445.04 49.2C1449 49.2 1452.14 50.36 1454.46 52.68C1456.82 54.96 1458 58.3 1458 62.7V81H1453.74V63.12C1453.74 59.84 1452.92 57.34 1451.28 55.62C1449.64 53.9 1447.3 53.04 1444.26 53.04C1440.86 53.04 1438.16 54.06 1436.16 56.1C1434.2 58.1 1433.22 60.88 1433.22 64.44V81H1428.96V49.44H1433.04V55.26C1434.2 53.34 1435.8 51.86 1437.84 50.82C1439.92 49.74 1442.32 49.2 1445.04 49.2ZM1479.64 81.36C1476.52 81.36 1473.52 80.86 1470.64 79.86C1467.8 78.86 1465.6 77.54 1464.04 75.9L1465.78 72.48C1467.3 74 1469.32 75.24 1471.84 76.2C1474.36 77.12 1476.96 77.58 1479.64 77.58C1483.4 77.58 1486.22 76.9 1488.1 75.54C1489.98 74.14 1490.92 72.34 1490.92 70.14C1490.92 68.46 1490.4 67.12 1489.36 66.12C1488.36 65.12 1487.12 64.36 1485.64 63.84C1484.16 63.28 1482.1 62.68 1479.46 62.04C1476.3 61.24 1473.78 60.48 1471.9 59.76C1470.02 59 1468.4 57.86 1467.04 56.34C1465.72 54.82 1465.06 52.76 1465.06 50.16C1465.06 48.04 1465.62 46.12 1466.74 44.4C1467.86 42.64 1469.58 41.24 1471.9 40.2C1474.22 39.16 1477.1 38.64 1480.54 38.64C1482.94 38.64 1485.28 38.98 1487.56 39.66C1489.88 40.3 1491.88 41.2 1493.56 42.36L1492.06 45.9C1490.3 44.74 1488.42 43.88 1486.42 43.32C1484.42 42.72 1482.46 42.42 1480.54 42.42C1476.86 42.42 1474.08 43.14 1472.2 44.58C1470.36 45.98 1469.44 47.8 1469.44 50.04C1469.44 51.72 1469.94 53.08 1470.94 54.12C1471.98 55.12 1473.26 55.9 1474.78 56.46C1476.34 56.98 1478.42 57.56 1481.02 58.2C1484.1 58.96 1486.58 59.72 1488.46 60.48C1490.38 61.2 1492 62.32 1493.32 63.84C1494.64 65.32 1495.3 67.34 1495.3 69.9C1495.3 72.02 1494.72 73.96 1493.56 75.72C1492.44 77.44 1490.7 78.82 1488.34 79.86C1485.98 80.86 1483.08 81.36 1479.64 81.36ZM1512.72 49.2C1516.84 49.2 1520 50.24 1522.2 52.32C1524.4 54.36 1525.5 57.4 1525.5 61.44V81H1521.42V76.08C1520.46 77.72 1519.04 79 1517.16 79.92C1515.32 80.84 1513.12 81.3 1510.56 81.3C1507.04 81.3 1504.24 80.46 1502.16 78.78C1500.08 77.1 1499.04 74.88 1499.04 72.12C1499.04 69.44 1500 67.28 1501.92 65.64C1503.88 64 1506.98 63.18 1511.22 63.18H1521.24V61.26C1521.24 58.54 1520.48 56.48 1518.96 55.08C1517.44 53.64 1515.22 52.92 1512.3 52.92C1510.3 52.92 1508.38 53.26 1506.54 53.94C1504.7 54.58 1503.12 55.48 1501.8 56.64L1499.88 53.46C1501.48 52.1 1503.4 51.06 1505.64 50.34C1507.88 49.58 1510.24 49.2 1512.72 49.2ZM1511.22 77.94C1513.62 77.94 1515.68 77.4 1517.4 76.32C1519.12 75.2 1520.4 73.6 1521.24 71.52V66.36H1511.34C1505.94 66.36 1503.24 68.24 1503.24 72C1503.24 73.84 1503.94 75.3 1505.34 76.38C1506.74 77.42 1508.7 77.94 1511.22 77.94ZM1563.11 49.44V81H1559.03V75.24C1557.91 77.16 1556.37 78.66 1554.41 79.74C1552.45 80.78 1550.21 81.3 1547.69 81.3C1543.57 81.3 1540.31 80.16 1537.91 77.88C1535.55 75.56 1534.37 72.18 1534.37 67.74V49.44H1538.63V67.32C1538.63 70.64 1539.45 73.16 1541.09 74.88C1542.73 76.6 1545.07 77.46 1548.11 77.46C1551.43 77.46 1554.05 76.46 1555.97 74.46C1557.89 72.42 1558.85 69.6 1558.85 66V49.44H1563.11ZM1585.72 81.3C1582.6 81.3 1579.8 80.62 1577.32 79.26C1574.88 77.9 1572.96 76 1571.56 73.56C1570.16 71.08 1569.46 68.3 1569.46 65.22C1569.46 62.14 1570.16 59.38 1571.56 56.94C1572.96 54.5 1574.88 52.6 1577.32 51.24C1579.8 49.88 1582.6 49.2 1585.72 49.2C1588.44 49.2 1590.86 49.74 1592.98 50.82C1595.14 51.86 1596.84 53.4 1598.08 55.44L1594.9 57.6C1593.86 56.04 1592.54 54.88 1590.94 54.12C1589.34 53.32 1587.6 52.92 1585.72 52.92C1583.44 52.92 1581.38 53.44 1579.54 54.48C1577.74 55.48 1576.32 56.92 1575.28 58.8C1574.28 60.68 1573.78 62.82 1573.78 65.22C1573.78 67.66 1574.28 69.82 1575.28 71.7C1576.32 73.54 1577.74 74.98 1579.54 76.02C1581.38 77.02 1583.44 77.52 1585.72 77.52C1587.6 77.52 1589.34 77.14 1590.94 76.38C1592.54 75.62 1593.86 74.46 1594.9 72.9L1598.08 75.06C1596.84 77.1 1595.14 78.66 1592.98 79.74C1590.82 80.78 1588.4 81.3 1585.72 81.3ZM1631 66.54H1604.6C1604.84 69.82 1606.1 72.48 1608.38 74.52C1610.66 76.52 1613.54 77.52 1617.02 77.52C1618.98 77.52 1620.78 77.18 1622.42 76.5C1624.06 75.78 1625.48 74.74 1626.68 73.38L1629.08 76.14C1627.68 77.82 1625.92 79.1 1623.8 79.98C1621.72 80.86 1619.42 81.3 1616.9 81.3C1613.66 81.3 1610.78 80.62 1608.26 79.26C1605.78 77.86 1603.84 75.94 1602.44 73.5C1601.04 71.06 1600.34 68.3 1600.34 65.22C1600.34 62.14 1601 59.38 1602.32 56.94C1603.68 54.5 1605.52 52.6 1607.84 51.24C1610.2 49.88 1612.84 49.2 1615.76 49.2C1618.68 49.2 1621.3 49.88 1623.62 51.24C1625.94 52.6 1627.76 54.5 1629.08 56.94C1630.4 59.34 1631.06 62.1 1631.06 65.22L1631 66.54ZM1615.76 52.86C1612.72 52.86 1610.16 53.84 1608.08 55.8C1606.04 57.72 1604.88 60.24 1604.6 63.36H1626.98C1626.7 60.24 1625.52 57.72 1623.44 55.8C1621.4 53.84 1618.84 52.86 1615.76 52.86Z" fill="#FE6C3E"/>
<path d="M395.7 77L387.35 66L378.95 77H374.95L385.35 63.5L375.45 50.7H379.45L387.35 61L395.25 50.7H399.15L389.25 63.5L399.75 77H395.7Z" fill="white"/>
</svg>
